<svg width="146" height="102" viewBox="0 0 146 102" fill="none" xmlns="http://www.w3.org/2000/svg">
<path fill-rule="evenodd" clip-rule="evenodd" d="M141.45 0.484375L139.919 0.563188C95.9771 3.02127 74.0786 19.9223 73.4347 55.9395L73.4201 57.5899L73.4163 101.492H137.259V51.0519L109.093 51.0526L108.895 46.8194C108.081 29.4078 120.694 18.3226 144.63 14.5593L145.313 14.4547L141.45 0.484375ZM58.928 0.484375L57.5144 0.557634C13.3437 2.98814 -8.38646 19.8027 -9.02528 55.9342L-9.03979 57.5899V101.492H54.797V51.0519L26.7308 51.0526L26.4399 46.902C25.2187 29.483 37.7745 18.341 61.7688 14.5623L62.5515 14.4415L58.928 0.484375Z" fill="#00B1CD" fill-opacity="0.2"/>
</svg>
