<svg width="106" height="28" viewBox="0 0 106 28" fill="none" xmlns="http://www.w3.org/2000/svg">
<path fill-rule="evenodd" clip-rule="evenodd" d="M102.643 9.92275V20.897H98.4336V21.2236H103.022V10.2514H105.799L104.724 8.08984H104.303L105.215 9.92275H102.643Z" fill="#C4132A"/>
<path fill-rule="evenodd" clip-rule="evenodd" d="M98.1261 13.2031H92.876C91.6119 13.2031 90.3141 13.9826 90.3141 15.7797C90.2976 16.0732 90.3427 16.3669 90.4464 16.642C90.5502 16.917 90.7104 17.1673 90.9167 17.3767C90.77 16.894 90.699 16.3916 90.706 15.8872C90.706 14.0922 91.9974 13.5318 93.2657 13.5318H98.1261V13.2031Z" fill="#C4132A"/>
<path fill-rule="evenodd" clip-rule="evenodd" d="M96.7862 16.0604C96.7862 17.4762 95.4147 19.2796 91.9258 19.2796C90.3858 19.2796 89.8928 19.1553 89.1069 18.9636C89.7284 19.3238 90.4574 19.5956 92.3072 19.5956C95.7096 19.5956 97.2097 17.7943 97.2097 16.1594C97.1961 15.539 97.0195 14.933 96.6977 14.4023H96.2953C96.62 14.8909 96.791 15.4654 96.7862 16.052" fill="#C4132A"/>
<path fill-rule="evenodd" clip-rule="evenodd" d="M98.1554 9.91797H84.8089V20.8923H80.6206V21.2188H85.1923V10.2466H98.1554V9.91797Z" fill="#C4132A"/>
<path fill-rule="evenodd" clip-rule="evenodd" d="M74.1675 20.8923V21.2188H78.7561V10.2466H80.3109V9.91797H78.3726V20.8923H74.1675Z" fill="#C4132A"/>
<path fill-rule="evenodd" clip-rule="evenodd" d="M73.8978 9.91797H59.835C60.4714 10.5673 60.8251 11.4421 60.8188 12.3513C60.8188 12.9644 60.5112 13.5122 60.1447 13.9841H60.7767C61.0454 13.6018 61.1923 13.1472 61.1981 12.68C61.2161 12.2276 61.1374 11.7766 60.9674 11.357C60.7974 10.9374 60.5399 10.5589 60.2121 10.2466H73.8978V9.91797Z" fill="#C4132A"/>
<path fill-rule="evenodd" clip-rule="evenodd" d="M73.8767 13.25H71.7341C69.5157 13.25 68.1526 14.4045 68.1526 16.564C68.1335 16.8775 68.1843 17.1913 68.3013 17.4827C68.4182 17.7742 68.5984 18.0361 68.8289 18.2494C68.6187 17.7647 68.518 17.2396 68.5339 16.7115C68.5339 14.5499 69.8991 13.585 72.1155 13.585H73.8767V13.25Z" fill="#C4132A"/>
<path fill-rule="evenodd" clip-rule="evenodd" d="M70.0888 20.9906C69.1689 21.0034 68.254 20.8543 67.3857 20.5502C68.0536 21.0348 68.9953 21.3192 70.4785 21.3192C71.0649 21.3232 71.6511 21.2908 72.2335 21.2223L72.6169 19.421C72.4568 19.421 72.303 19.421 72.1576 19.4062L71.8479 20.8936C71.264 20.9605 70.6765 20.9921 70.0888 20.9885" fill="#C4132A"/>
<path fill-rule="evenodd" clip-rule="evenodd" d="M63.4841 14.2873H63.0333C62.8966 14.7971 62.796 15.316 62.732 15.84H55.6953V16.6553C55.6908 16.9733 55.7506 17.289 55.8711 17.5834C55.9917 17.8777 56.1705 18.1446 56.3969 18.3681C56.1866 17.9224 56.0807 17.4346 56.0872 16.9418V16.1686H63.1049C63.1891 15.533 63.3158 14.9038 63.4841 14.2852" fill="#C4132A"/>
<path fill-rule="evenodd" clip-rule="evenodd" d="M58.3475 21.1662C56.4346 21.1662 55.8994 20.9766 55.1663 20.7448C55.7372 21.1219 56.5968 21.5033 58.7331 21.5033C59.8476 21.5239 60.9617 21.4435 62.0618 21.2631L62.6327 19.1289L62.1713 19.2048L61.7121 20.9365C60.5975 21.1132 59.4695 21.1921 58.3412 21.1725" fill="#C4132A"/>
<path fill-rule="evenodd" clip-rule="evenodd" d="M43.6085 13.1883H49.3495V10.2388H55.2064C55.0859 10.1202 54.957 10.0104 54.8209 9.91016H48.9724V12.8576H43.2272C41.1646 12.8576 40.1428 13.7698 40.1428 15.4763C40.1424 15.9932 40.3211 16.4942 40.6485 16.8942C40.557 16.5407 40.5138 16.1764 40.5199 15.8113C40.5199 14.0985 41.5502 13.1883 43.6085 13.1883Z" fill="#C4132A"/>
<path fill-rule="evenodd" clip-rule="evenodd" d="M45.2456 20.4232V20.8003C45.9198 20.6315 46.6111 20.5403 47.306 20.5285C48.1512 20.547 48.9924 20.6494 49.8173 20.834V14.6484H49.436V20.459C48.7137 20.3016 47.9777 20.2155 47.2386 20.2019C46.5691 20.2171 45.9022 20.2912 45.2456 20.4232Z" fill="#C4132A"/>
<path fill-rule="evenodd" clip-rule="evenodd" d="M48.4583 23.0737C48.2034 22.8398 47.8389 22.6523 47.1226 22.6523C45.9112 22.6523 44.999 23.2549 44.3838 23.7689L44.7103 24.144C45.3424 23.6236 46.263 22.9831 47.5082 22.9831C47.8289 22.9754 48.1493 23.0066 48.4625 23.0758" fill="#C4132A"/>
<path fill-rule="evenodd" clip-rule="evenodd" d="M44.9295 19.3434V18.8398C44.3628 19.179 43.4 19.6236 41.7145 19.6236C40.1534 19.6236 39.3191 19.3729 38.4216 18.9389C39.2243 19.6067 40.3283 19.9564 42.0938 19.9564C43.0739 19.9762 44.0451 19.7663 44.9295 19.3434Z" fill="#C4132A"/>
<path fill-rule="evenodd" clip-rule="evenodd" d="M52.5941 24.332C52.5971 24.1201 52.5505 23.9105 52.4579 23.7199C52.3653 23.5293 52.2294 23.363 52.061 23.2344C52.1588 23.4788 52.2075 23.7401 52.2043 24.0034C52.2043 25.4254 50.7295 26.6684 46.9794 26.6684C44.8377 26.6766 42.7124 26.2946 40.7075 25.5413C41.7441 26.1986 44.2891 26.9992 47.3629 26.9992C51.1024 26.9992 52.5941 25.7604 52.5941 24.332Z" fill="#C4132A"/>
<path fill-rule="evenodd" clip-rule="evenodd" d="M46.7013 26.4476C50.4429 26.4476 51.9345 25.2025 51.9345 23.7783C51.9345 22.5542 50.325 21.267 47.2996 21.267C45.8168 21.2396 44.3564 21.631 43.086 22.3962L44.1078 23.5423C44.7398 23.0156 45.6036 22.4299 46.8466 22.4299C48.1592 22.4299 48.8755 22.9587 48.8755 23.694C48.8755 24.5515 48.2434 25.2341 46.0418 25.2341C43.1766 25.2341 40.3093 23.5486 39.4033 22.8218L38.0676 24.0121C39.4033 24.76 41.9757 26.4434 46.7055 26.4434" fill="#C4132A"/>
<path fill-rule="evenodd" clip-rule="evenodd" d="M37.0122 11.5859H36.3802C35.8029 12.0431 35.2825 12.8858 35.0908 13.2018H31.13C29.0233 13.2018 27.6602 13.7475 27.6602 15.7616C27.6645 16.2911 27.8666 16.7999 28.2269 17.1879C28.1047 16.7913 28.0422 16.3788 28.0415 15.9639C28.0415 13.9076 29.3983 13.5305 31.5156 13.5305H35.371C35.5648 13.2229 36.2875 12.1 37.0206 11.5859" fill="#C4132A"/>
<path fill-rule="evenodd" clip-rule="evenodd" d="M44.9463 9.91797H20.3516V12.6041H14.1871C13.2264 12.6041 12.7798 12.8717 12.7798 13.3415C12.7733 13.4534 12.7995 13.5648 12.8552 13.6621C12.911 13.7594 12.9938 13.8383 13.0937 13.8893C13.0677 13.8068 13.0549 13.7208 13.0558 13.6344C13.0558 12.9454 13.8648 12.9307 14.4652 12.9307H20.735V10.2466H44.9463V9.91797Z" fill="#C4132A"/>
<path fill-rule="evenodd" clip-rule="evenodd" d="M29.0527 19.0579C32.4236 19.0579 33.9595 17.4335 33.9595 16.0304C33.9503 15.4536 33.7851 14.8901 33.4812 14.3997H30.479C30.6927 14.8623 30.8062 15.3649 30.8119 15.8745C30.8119 17.1386 30.1567 17.739 29.1496 17.739C28.2395 17.739 27.3736 17.128 27.3736 15.5437C27.3736 13.4369 28.7388 12.9861 30.8477 12.9861H34.819C35.1264 12.4722 35.4942 11.9969 35.9146 11.5703H29.2592C26.2823 11.5703 23.6973 13.0451 23.6973 15.3857C23.6973 17.6021 25.7008 19.0579 29.0527 19.0579Z" fill="#C4132A"/>
<path fill-rule="evenodd" clip-rule="evenodd" d="M34.6505 16.4474C34.6764 15.7333 34.4981 15.0265 34.1365 14.4102H33.7383C34.0803 14.9605 34.2519 15.5997 34.2313 16.2473C34.2313 17.6567 32.687 19.279 29.3351 19.279C28.0563 19.279 26.7543 19.0409 25.9495 18.6785C26.7353 19.2052 27.6686 19.6034 29.7164 19.6034C33.0725 19.6034 34.6505 17.8569 34.6505 16.4432" fill="#C4132A"/>
<path fill-rule="evenodd" clip-rule="evenodd" d="M16.6038 7.86202H17.1894C17.3544 7.55977 17.4392 7.22035 17.4359 6.87604C17.4378 6.60892 17.3773 6.34505 17.2591 6.10547C17.141 5.86589 16.9685 5.65722 16.7554 5.49609C16.9503 5.81265 17.0518 6.17779 17.0483 6.54949C17.0756 7.02817 16.9205 7.49941 16.6143 7.86834" fill="#C4132A"/>
<path fill-rule="evenodd" clip-rule="evenodd" d="M22.7028 16.951C22.717 16.6694 22.6588 16.389 22.5338 16.1363C22.4087 15.8837 22.221 15.6673 21.9886 15.5078C22.2111 15.8362 22.3259 16.2257 22.3173 16.6223C22.3173 18.1434 20.6824 18.8976 17.6823 18.8976C16.9758 18.8982 16.2706 18.8348 15.5755 18.708L15.5039 18.9924C16.3515 19.1347 17.2085 19.2136 18.0679 19.2284C21.049 19.2284 22.7028 18.47 22.7028 16.951Z" fill="#C4132A"/>
<path fill-rule="evenodd" clip-rule="evenodd" d="M16.6396 15.6781C17.0983 15.6623 17.5563 15.7279 17.9921 15.8719C17.6213 15.558 17.0989 15.3516 16.2561 15.3516C15.011 15.3516 12.9084 16.0278 12.9084 17.8165C12.9096 18.0365 12.9578 18.2536 13.0497 18.4535C13.1417 18.6533 13.2752 18.8312 13.4415 18.9752C13.3539 18.7067 13.3036 18.4274 13.2919 18.1452C13.2919 16.3544 15.3987 15.6781 16.6396 15.6781Z" fill="#C4132A"/>
<path fill-rule="evenodd" clip-rule="evenodd" d="M17.1704 21.8944C13.7805 21.8944 12.5249 21.4731 11.6147 21.1887C12.4132 21.6753 13.8185 22.2252 17.5601 22.2252C18.5605 22.2365 19.5589 22.1362 20.537 21.926L20.9731 19.9141L20.5518 19.9962L20.202 21.5953C19.2049 21.8064 18.1874 21.9068 17.1683 21.8944" fill="#C4132A"/>
<path fill-rule="evenodd" clip-rule="evenodd" d="M15.8727 9.91797H7.14846V20.8754H2.81689V21.2062H7.534V10.2466H15.8727V9.91797Z" fill="#C4132A"/>
<path fill-rule="evenodd" clip-rule="evenodd" d="M2.51972 9.91797H0.162223L0 10.2466H2.51972V9.91797Z" fill="#C4132A"/>
<path fill-rule="evenodd" clip-rule="evenodd" d="M9.80084 4.62012C12.3564 4.62012 13.4224 5.65245 13.4224 6.79855C13.4224 7.32735 13.0622 7.80981 12.763 8.08791H7.00302C6.79456 7.94529 6.62082 7.75764 6.49465 7.53885C6.36847 7.32005 6.29309 7.07569 6.27406 6.82383C6.27406 5.52815 7.37592 4.62855 9.80084 4.62855V4.62012ZM2.79996 20.657H6.8745V9.70171H16.1275V11.2017H11.4083C9.9125 11.2017 8.83171 11.7622 8.83171 13.0094C8.83171 14.0101 9.70814 14.5937 10.6604 14.9392C9.46375 15.4954 8.4862 16.2686 8.4862 17.638C8.4862 20.3368 11.3535 21.6894 16.8944 21.6894C17.9143 21.7006 18.9323 21.6003 19.9303 21.3902L20.2253 20.0713C19.1592 20.2885 18.0728 20.3895 16.985 20.3726C14.0523 20.3726 12.6324 19.1654 12.6324 17.6085C12.6324 15.8177 14.7392 15.1457 15.9843 15.1457C17.2294 15.1457 18.5124 15.567 18.5124 16.5551C18.5124 17.1029 18.1037 17.6843 16.9597 17.6843C16.5823 17.6657 16.2083 17.6035 15.8452 17.499L15.6072 18.5229C16.1977 18.6385 16.7983 18.6942 17.4 18.6893C20.3769 18.6893 22.035 17.9393 22.035 16.414C22.035 14.1407 18.2617 13.7762 16.8396 13.7762C15.6394 13.7872 14.4442 13.9342 13.277 14.2145C12.8746 14.1323 12.4343 13.9153 12.4343 13.4181C12.4343 12.6934 12.8388 12.4005 14.1345 12.4005H20.0757V9.70171H45.2603V11.2228H41.2574C37.3851 11.2228 35.9314 13.3149 35.9314 15.4617C35.9314 17.8065 38.5312 19.4056 41.4343 19.4056C43.3726 19.4056 44.5819 18.7504 45.2266 18.2089V20.1893C45.9004 20.0461 46.5876 19.9755 47.2765 19.9786C47.9082 19.9697 48.5388 20.034 49.1557 20.1704V14.6337H45.2224V16.2812C44.9161 16.739 44.4984 17.1113 44.0086 17.363C43.5188 17.6148 42.9729 17.7377 42.4224 17.7202C40.678 17.7202 39.8648 16.8458 39.8648 15.2573C39.8648 13.5508 40.8929 12.6344 42.9554 12.6344H48.6965V9.70171H54.9494C56.0028 10.3948 56.3799 11.2966 56.3799 12.0192C56.3799 13.6056 54.8546 14.1871 53.7106 14.1871H51.4943V15.9757C51.4943 19.4477 54.1889 20.9351 58.0801 20.9351C59.2048 20.9527 60.3289 20.8752 61.4404 20.7034L61.8091 19.2518C61.0466 19.4107 60.2705 19.4961 59.4917 19.5067C57.3111 19.5067 55.4277 18.6472 55.4277 16.5088V15.626H62.4517C62.5033 15.1709 62.5886 14.7202 62.7066 14.2777H59.3779C60.1068 13.6456 60.5493 12.8387 60.5493 12.1477C60.5549 11.6839 60.4574 11.2247 60.264 10.8031C60.0705 10.3816 59.7859 10.0083 59.4306 9.71014H74.1571V11.5599H69.8697C67.6976 11.5599 63.8359 12.5016 63.8359 16.02C63.8359 19.0264 66.5157 20.7792 69.8128 20.7792C70.4035 20.784 70.9939 20.7516 71.5804 20.6823L71.8564 19.3972C69.1766 19.3972 67.8851 18.1816 67.8851 16.3529C67.8851 14.1892 69.2482 13.0389 71.4667 13.0389H74.1571V20.6823H78.1115V9.70171H80.6144V20.6823H84.5435V9.70171H98.4252V11.5683H92.128C88.6834 11.5683 86.229 13.081 86.229 15.2742C86.229 17.7054 87.7859 19.0664 91.6561 19.0664C94.9848 19.0664 96.5017 17.4716 96.5017 16.0558C96.4948 15.4695 96.328 14.8962 96.0192 14.3978H93.0023C93.2341 14.8545 93.3526 15.3603 93.3478 15.8725C93.3478 17.1366 92.8401 17.737 91.7404 17.737C90.55 17.737 90.0381 16.9849 90.0381 15.5586C90.0381 13.7636 91.3316 12.982 92.602 12.982H98.4147V20.6823H102.363V9.70171H104.868L104.059 8.08791H15.8347C16.3804 7.67919 16.768 7.21359 16.768 6.32663C16.768 4.62855 14.499 3 9.80084 3C4.11249 3 1.90457 4.44947 1.90457 6.28238C1.90505 6.62089 1.97484 6.95572 2.10962 7.26624C2.24441 7.57675 2.44135 7.85639 2.6883 8.08791H1.15034L0.290771 9.70171H2.79996V20.657Z" fill="#C4132A"/>
<path fill-rule="evenodd" clip-rule="evenodd" d="M7.00301 7.81134C6.9543 7.66462 6.9301 7.51087 6.93138 7.35628C6.93138 6.05217 8.03534 5.161 10.4581 5.161C11.1443 5.15948 11.8273 5.25451 12.487 5.44331C12.0151 5.12097 11.0986 4.82812 10.0705 4.82812C7.64979 4.82812 6.55005 5.75933 6.55005 6.93492C6.55005 7.21723 6.80286 7.72075 7.00301 7.81134Z" fill="#C4132A"/>
</svg>
