<svg width="181" height="32" viewBox="0 0 181 32" fill="none" xmlns="http://www.w3.org/2000/svg">
<path d="M11.623 27.0005C17.4003 27.0005 22.0837 22.2181 22.0837 16.3186C22.0837 10.4192 17.4003 5.63672 11.623 5.63672C5.84576 5.63672 1.16235 10.4192 1.16235 16.3186C1.16235 22.2181 5.84576 27.0005 11.623 27.0005Z" fill="white"/>
<path d="M17.184 18.6061L15.4657 19.5456V19.5766C15.9552 19.8004 16.4899 19.9075 17.0278 19.8897C17.4293 19.9019 17.8301 19.8496 18.2149 19.7347V12.6896L17.7461 12.6586L17.1541 13.2231V18.6084L17.184 18.6061ZM3.81369 15.0991V14.9441C3.81369 13.6598 3.84468 13.535 5.21929 11.6877L5.1883 11.6567L4.06475 12.2828H3.22286C2.78584 12.2828 2.63125 12.3138 2.47318 12.5021C2.42068 12.5674 2.38242 12.6429 2.36087 12.7239C2.33932 12.8048 2.33495 12.8893 2.34804 12.9721H2.19306C2.05128 12.7587 1.9753 12.5084 1.97455 12.2522C1.96522 12.0686 1.99365 11.885 2.05809 11.7128C2.12253 11.5406 2.22161 11.3835 2.3492 11.2511C2.51389 11.1054 2.70778 10.9966 2.91791 10.9318C3.12803 10.8671 3.34955 10.848 3.56767 10.8757L4.78615 10.9694L5.62959 10.8757L5.75473 10.9384V17.7646C5.75473 18.5802 5.72335 18.8289 3.97254 20.52L4.00392 20.5828L5.56605 20.1128H6.53463V10.8102H7.00342V15.0999H8.75306V12.0004L10.9723 10.7792L11.0974 10.842L10.8479 12.6896V19.5158L11.9099 20.2984V20.4236L10.2854 21.4878H10.1591L8.78444 20.1729V16.4466H7.03286V20.6425L5.72102 21.5192H2.66031L2.59793 21.3941C3.78463 19.9218 3.87917 19.4844 3.87917 18.6387V16.4783H1.91063L1.87924 16.3528L2.75406 15.1316H3.81563L3.81369 15.0991ZM13.8094 16.5713C13.7926 17.03 13.8667 17.4875 14.0276 17.9174C14.1884 18.3473 14.4328 18.7411 14.7466 19.0761C14.845 19.1881 14.9611 19.2833 15.0903 19.3577H15.1217L15.4963 18.8878V13.5025L17.1208 12.6257V12.5947C16.5215 12.4919 15.9161 12.4292 15.3084 12.4068C14.1217 12.4068 13.6529 12.6261 13.3093 12.9713C13.0932 13.2032 12.9613 13.5009 12.9346 13.8167H12.6847C12.5685 13.5167 12.505 13.1988 12.4972 12.8772C12.4897 12.6163 12.5357 12.3566 12.6326 12.1142C12.7294 11.8719 12.8749 11.6519 13.0601 11.4681C13.5286 10.9985 14.2786 10.7164 15.4642 10.7164C16.339 10.7164 17.7756 10.9981 18.9937 10.9981C19.8371 10.9981 20.087 10.873 20.4617 10.3395L20.6166 10.3705C20.3353 12.1871 19.648 12.6873 18.7116 12.6873H18.6179V19.5449C19.3573 19.2744 19.9698 18.7386 20.3361 18.0416L20.4911 18.0726C20.4643 18.9107 20.1178 19.7067 19.5225 20.2973C19.1012 20.6939 18.6055 21.0033 18.064 21.2075C17.5225 21.4117 16.946 21.5067 16.3677 21.4871C15.8111 21.5194 15.2539 21.4355 14.7316 21.2407C14.2092 21.046 13.7331 20.7447 13.3335 20.3559C12.9339 19.9671 12.6196 19.4995 12.4106 18.9827C12.2016 18.4658 12.1024 17.9112 12.1195 17.3539C12.1145 16.8672 12.2058 16.3842 12.388 15.9329C12.5703 15.4815 12.8399 15.0705 13.1814 14.7237C13.6303 14.2667 14.1742 13.9139 14.7745 13.6904L14.8679 13.8155C14.1945 14.5766 13.8174 15.5547 13.8056 16.5709L13.8094 16.5713ZM23.114 16.2265C23.1334 14.732 22.8562 13.2485 22.2986 11.8619C21.741 10.4752 20.914 9.21281 19.8654 8.14777C17.6336 5.99797 14.6555 4.79688 11.5567 4.79688C8.45795 4.79688 5.4798 5.99797 3.24804 8.14777C1.16377 10.3206 0 13.2149 0 16.2257C0 19.2366 1.16377 22.1309 3.24804 24.3037C5.48005 26.4532 8.45819 27.654 11.5569 27.654C14.6556 27.654 17.6338 26.4532 19.8658 24.3037C21.9715 22.1445 23.1391 19.2409 23.1144 16.225" fill="#00B1CD"/>
<path d="M31.6508 24.7114L31.3099 24.971C30.7865 24.612 30.162 24.4299 29.5277 24.4514C28.812 24.4521 28.1061 24.6171 27.4643 24.9338V24.9144C28.1849 24.4451 29.0289 24.2011 29.8888 24.2136C30.5162 24.1789 31.1371 24.3554 31.6524 24.7149L31.6508 24.7114ZM169.847 24.4142C169.867 24.2817 169.922 24.1571 170.007 24.0535C170.233 23.9804 170.47 23.9465 170.708 23.9532C171.707 23.9068 172.684 24.2521 173.433 24.9156L173.112 25.1159C172.431 24.4541 171.33 24.274 170.587 24.274C170.333 24.2721 170.081 24.3197 169.845 24.4142H169.847ZM82.8124 24.4142C82.8324 24.2817 82.8878 24.1571 82.9728 24.0535C83.199 23.9805 83.4361 23.9467 83.6737 23.9536C84.6213 23.9288 85.5414 24.2739 86.2389 24.916L85.9185 25.1163C85.255 24.565 84.4177 24.2667 83.5551 24.2744C83.3012 24.2745 83.0496 24.322 82.8132 24.4146L82.8124 24.4142ZM49.3464 23.0919C49.926 23.7294 50.5862 24.2887 51.3103 24.7556L50.9093 25.0152C50.1981 24.547 49.5512 23.9877 48.9853 23.3515L49.3464 23.0919ZM144.895 23.0919C145.474 23.7294 146.134 24.2887 146.858 24.7556L146.457 25.0152C145.746 24.547 145.099 23.9877 144.533 23.3515L144.895 23.0919ZM110.125 23.0919C110.705 23.7294 111.365 24.2887 112.089 24.7556L111.688 25.0152C110.977 24.5471 110.33 23.9878 109.764 23.3515L110.125 23.0919ZM138.922 22.9718C139.533 23.682 140.257 24.285 141.067 24.756L140.667 25.0155C139.88 24.5308 139.17 23.93 138.563 23.2333L138.922 22.9718ZM43.3525 22.9718C43.9673 23.6774 44.6913 24.2797 45.4969 24.756L45.0959 25.0155C44.3088 24.5308 43.5994 23.93 42.9918 23.2333L43.3525 22.9718ZM92.8911 22.7123C93.7345 23.5343 94.677 24.248 95.6969 24.8369L95.2959 25.1174C94.2866 24.523 93.3573 23.8022 92.5304 22.9726L92.8911 22.7123ZM101.066 25.0171C100.335 24.5828 99.6955 24.0112 99.1822 23.3337V21.3675C99.1903 20.7786 99.1635 20.1897 99.102 19.6039L99.5231 19.4435C99.5425 19.9258 99.5832 20.5457 99.5832 21.1676V23.19C100.101 23.8264 100.741 24.3515 101.467 24.7335L101.066 25.0171ZM175.253 23.3945V19.927L174.07 19.4075L174.31 19.1479L175.654 19.729V23.7103L175.594 23.7297L175.253 23.3945ZM88.0594 23.3945V19.927L86.877 19.4075L87.1172 19.1479L88.4604 19.729V23.7103L88.4004 23.7297L88.0594 23.3945ZM102.107 20.1072C102.081 19.5288 102.128 18.9495 102.248 18.3831C102.831 18.5433 103.427 18.6506 104.03 18.7035V22.9083C103.709 23.0485 103.368 23.1679 103.088 23.3093C102.735 23.1062 102.412 22.8567 102.126 22.5674V20.1025L102.107 20.1072ZM33.9134 16.3971H36.799V16.7377H33.9134V16.3971ZM26.2582 16.8384L26.6189 16.3971H28.842V16.7377H27.88C27.3371 16.7249 26.7942 16.7585 26.257 16.838L26.2582 16.8384ZM63.2103 24.7556L62.8093 25.0152C62.0136 24.5322 61.3195 23.8992 60.7656 23.1512V17.4172C60.7656 16.0542 60.7462 15.4727 60.7055 14.9919L61.1464 14.8117V23.0106C61.7058 23.7286 62.4085 24.3224 63.2099 24.754L63.2103 24.7556ZM99.4019 16.3154C100.103 15.833 100.764 15.3139 101.426 14.7722C102.212 15.3108 103.098 15.6856 104.031 15.8745V18.2595C101.968 18.0793 100.484 17.4176 99.4023 16.315L99.4019 16.3154ZM164.193 14.7695L164.253 14.7501C164.796 15.8919 165.447 16.9794 166.197 17.9976L164.194 19.0797L164.193 14.7695ZM173.15 20.0812L172.89 20.3617L170.245 19.1188V16.1325C170.244 15.6706 170.217 15.2091 170.165 14.7501L170.648 14.6099V18.9193L173.15 20.0812ZM85.9568 20.0812L85.6972 20.3617L83.0522 19.1188V16.1325C83.0511 15.6706 83.0243 15.2091 82.972 14.7501L83.4544 14.6099V18.9193L85.9568 20.0812ZM135.996 23.0493C135.328 23.7523 134.523 24.3094 133.629 24.6854C132.735 25.0614 131.774 25.2482 130.804 25.234C128.519 25.234 126.717 24.4921 125.373 23.19C124.764 22.581 124.283 21.8556 123.959 21.0569C123.635 20.2581 123.476 19.4025 123.49 18.5408C123.493 17.79 123.651 17.0479 123.954 16.3611C124.258 15.6744 124.7 15.0578 125.253 14.5502L125.273 14.5696C124.355 15.6155 123.862 16.9669 123.891 18.3579C123.884 19.2069 124.048 20.0485 124.372 20.8332C124.696 21.6179 125.174 22.3298 125.777 22.9269C127.02 24.1698 128.745 24.8513 130.948 24.8513C132.799 24.9135 134.605 24.2686 135.998 23.0474L135.996 23.0493ZM92.852 14.6901H92.1511L92.3518 14.3294H92.8527L92.852 14.6901ZM98.3632 14.3495L98.0428 14.7707C97.4184 14.6909 96.7884 14.664 96.1595 14.6905V14.3298H98.3237L98.3632 14.3495ZM164.454 25.0737C163.28 24.065 162.2 22.9513 161.228 21.7464V16.6749C161.228 15.673 161.167 14.7908 161.127 14.4487L161.548 14.3488C161.614 15.0013 161.641 15.6573 161.629 16.313V21.5844C162.599 22.7596 163.672 23.8463 164.835 24.8319L164.454 25.0737ZM106.279 24.7532L105.878 25.0128C105.255 24.4963 104.714 23.888 104.275 23.2089V15.6928C103.313 15.5015 102.4 15.1195 101.589 14.5692L101.869 14.2887C102.714 14.8519 103.66 15.2465 104.655 15.451V23.0478C105.125 23.6789 105.67 24.2513 106.278 24.7525L106.279 24.7532ZM57.04 24.7525L56.6391 25.0121C56.0185 24.5741 55.4532 24.0626 54.9557 23.4887V15.2511C54.6984 14.8783 54.3718 14.5586 53.9937 14.3092L54.3544 14.1488C54.7464 14.4191 55.0858 14.7586 55.3559 15.1507V23.3496C55.8579 23.884 56.4232 24.3553 57.0393 24.7529L57.04 24.7525ZM117.8 24.7529L117.399 25.0124C116.778 24.5745 116.213 24.063 115.715 23.4891V15.2511C115.458 14.8784 115.132 14.5587 114.754 14.3092L115.115 14.1488C115.507 14.4191 115.846 14.7586 116.116 15.1507V23.3496C116.623 23.8793 117.187 24.3501 117.799 24.7529H117.8ZM152.589 24.7529L152.188 25.0124C151.567 24.5745 151.002 24.063 150.505 23.4891V15.2511C150.247 14.8784 149.921 14.5586 149.543 14.3092L149.903 14.1488C150.295 14.4191 150.635 14.7586 150.905 15.1507V23.3496C151.411 23.8793 151.976 24.3501 152.588 24.7529H152.589ZM157.999 24.7529L157.598 25.0124C156.978 24.5745 156.413 24.063 155.915 23.4891V15.2511C155.649 14.8653 155.308 14.5374 154.912 14.2872L155.273 14.1268C155.667 14.4094 156.012 14.7547 156.295 15.1488V23.3476C156.814 23.8725 157.385 24.3427 158 24.7509L157.999 24.7529ZM110.328 22.7064V15.1903C110.096 14.8419 109.812 14.531 109.487 14.2682L109.827 14.088C110.167 14.3617 110.47 14.6782 110.729 15.0299V22.4077L110.369 22.6882H110.33L110.328 22.7064ZM139.125 22.5662V15.1918C138.887 14.8486 138.604 14.5386 138.284 14.2701L138.624 14.09C138.964 14.3638 139.267 14.6804 139.526 15.0318V22.2876L139.165 22.5681L139.125 22.5662ZM72.5528 23.0071C73.0904 23.7332 73.7903 24.3236 74.5965 24.7312L74.1955 24.9907C73.3835 24.5301 72.6851 23.8932 72.1518 23.1268V14.8908C71.883 14.6415 71.5793 14.4326 71.2503 14.2709L71.5908 14.0907C71.9307 14.2865 72.2464 14.5215 72.5315 14.7908V23.0086L72.5528 23.0071ZM145.119 22.7064V15.1903C144.887 14.8421 144.603 14.5313 144.277 14.2686L144.618 14.0884C144.958 14.3619 145.261 14.6784 145.519 15.0299V22.4058L145.159 22.6863H145.12L145.119 22.7064ZM43.5772 22.5662V15.1918C43.3388 14.8486 43.0558 14.5386 42.7357 14.2701L43.0762 14.09C43.4161 14.3639 43.7191 14.6806 43.9778 15.0322V22.2876L43.6171 22.5681H43.5783L43.5772 22.5662ZM49.549 22.7064V15.1903C49.317 14.8421 49.0332 14.5313 48.7075 14.2686L49.0481 14.0884C49.3881 14.362 49.6911 14.6786 49.9496 15.0303V22.4077L49.5889 22.6882H49.5502L49.549 22.7064ZM77.565 14.5886C77.3863 14.4344 77.1914 14.3 76.9839 14.1876L77.3245 14.007C77.5512 14.1401 77.7596 14.3023 77.9443 14.4894V23.0482C78.3754 23.7054 78.9179 24.2824 79.5475 24.7529L79.1465 25.0124C78.4893 24.5083 77.9435 23.8737 77.5433 23.1485V14.5909L77.565 14.5886ZM63.8178 16.6524C63.8178 14.9477 63.8778 14.2891 64.0774 13.6843C64.5783 13.9648 65.1595 14.3042 65.8596 14.7265V22.8444C65.4992 22.9846 65.1176 23.1249 64.7775 23.2857C64.422 23.0712 64.0983 22.808 63.8158 22.5038L63.8178 16.6524ZM177.084 15.129L176.804 15.4897C176.637 15.5469 176.461 15.5741 176.285 15.5699C175.665 15.5691 175.053 15.4322 174.492 15.169C173.931 14.9058 173.435 14.5226 173.038 14.0466V13.6456H173.098C173.5 14.1351 174.004 14.5305 174.576 14.8041C175.147 15.0777 175.771 15.2227 176.405 15.229C176.638 15.2211 176.869 15.1737 177.086 15.0888L177.084 15.129ZM89.9121 15.129L89.6316 15.4897C89.4647 15.5469 89.2889 15.5741 89.1125 15.5699C88.4928 15.5691 87.8808 15.4323 87.3198 15.169C86.7588 14.9058 86.2625 14.5226 85.8658 14.0466V13.6456H85.9258C86.3278 14.1351 86.8322 14.5305 87.4035 14.8041C87.9748 15.0777 88.5992 15.2227 89.2326 15.229C89.466 15.221 89.6964 15.1736 89.9141 15.0888L89.9121 15.129ZM166.403 17.8953C165.558 16.7144 164.82 15.4605 164.198 14.1485V13.5286L164.258 13.5092C164.934 15.0033 165.767 16.4211 166.743 17.7384L166.403 17.8953ZM149.425 23.4693L149.265 23.2097C149.064 23.2899 148.864 23.3701 148.684 23.4503C148.496 23.353 148.321 23.2317 148.164 23.0896V14.9501C148.505 14.7699 148.906 14.5894 149.288 14.4305C149.665 14.6731 149.992 14.9862 150.25 15.3526V23.6522C150.804 24.3171 151.453 24.8978 152.174 25.3762H152.234C153.15 24.6773 154.107 24.0347 155.101 23.4519L154.941 23.1923L154.379 23.4329C154.071 23.258 153.794 23.0348 153.556 22.7719V14.9535C153.897 14.7734 154.298 14.5928 154.68 14.434C155.057 14.6767 155.384 14.9897 155.642 15.3561V23.6545C156.196 24.3192 156.844 24.8999 157.566 25.3782H157.626C158.668 24.5963 159.49 24.0152 160.692 23.2736L160.532 23.0141C160.277 23.1407 160.016 23.2543 159.75 23.3546C159.452 23.2177 159.186 23.0197 158.969 22.7735V14.5502C158.498 13.6649 157.781 12.9342 156.905 12.4457H156.845C155.637 12.9434 154.513 13.6271 153.516 14.472C153.057 13.6113 152.352 12.9066 151.491 12.4472H151.431C150.235 12.9336 149.125 13.6109 148.145 14.4526C147.657 13.6775 147.033 12.9979 146.301 12.4472H146.241C145.055 13.0706 143.945 13.8301 142.935 14.7102L143.135 14.9508C143.395 14.7707 143.716 14.5901 143.997 14.4313C144.296 14.6936 144.571 14.9819 144.819 15.2929V22.8479C144.578 23.028 144.378 23.1884 144.157 23.3492V23.4092C144.821 24.1608 145.582 24.8214 146.419 25.3739H146.48C147.418 24.6746 148.401 24.0385 149.424 23.4697L149.425 23.4693ZM48.343 23.2488L48.1826 22.9893C47.842 23.1295 47.5627 23.2489 47.281 23.3903C47.0356 23.2569 46.8069 23.095 46.5995 22.9079V14.451C46.1236 13.6619 45.4973 12.9739 44.7561 12.4263H44.6961C43.5097 13.0496 42.3999 13.8091 41.3893 14.6893L41.5896 14.9299C41.8678 14.7422 42.1554 14.5688 42.4513 14.4104C42.7502 14.6728 43.0252 14.9613 43.273 15.2724V22.6685C43.0623 22.8539 42.8414 23.0273 42.6113 23.188V23.2481C43.3066 24.0776 44.1323 24.7884 45.056 25.3526H45.116C46.2179 24.5708 47.0602 24.0094 48.343 23.2481V23.2488ZM114.896 23.3283L114.736 23.0687C114.415 23.2089 114.155 23.3093 113.874 23.429C113.693 23.3289 113.525 23.2077 113.373 23.0679V14.9318C113.714 14.7513 114.115 14.5711 114.497 14.4127C114.874 14.6553 115.2 14.9684 115.459 15.3348V23.6332C116.013 24.2979 116.661 24.8785 117.383 25.3569H117.443C118.421 24.5931 119.445 23.8902 120.509 23.2523L120.348 22.9928C120.094 23.1194 119.833 23.2331 119.567 23.3333C119.269 23.1963 119.003 22.9984 118.785 22.7522V14.5293C118.314 13.644 117.598 12.9133 116.722 12.4248H116.661C115.464 12.9112 114.355 13.5884 113.375 14.4301C112.887 13.6551 112.263 12.9755 111.531 12.4248H111.47C110.284 13.0487 109.174 13.8088 108.164 14.6897L108.364 14.9303C108.642 14.7427 108.93 14.5694 109.226 14.4111C109.525 14.6734 109.8 14.9618 110.047 15.2728V22.8277C109.837 23.0077 109.616 23.1751 109.386 23.329V23.3891C110.051 24.1406 110.812 24.8011 111.65 25.3534H111.71C112.727 24.6098 113.791 23.9335 114.896 23.3287L114.896 23.3283ZM75.1974 14.1709C74.6528 13.4967 74.0031 12.9146 73.2735 12.4469H73.2134C72.0511 13.1477 71.3297 13.7083 70.1473 14.5514L70.3077 14.811C70.5479 14.6707 70.79 14.5514 71.0081 14.41C71.3208 14.5787 71.6104 14.7871 71.8698 15.0299V23.2678C72.4712 24.1151 73.2516 24.8197 74.1556 25.3317H74.2157C75.1777 24.6308 76.24 23.9086 77.2617 23.2876C77.7671 24.0661 78.3966 24.7566 79.1252 25.3317H79.1853C80.2271 24.57 81.3898 23.7281 82.3715 23.1059L82.2111 22.8463C81.8907 22.9866 81.6098 23.1268 81.3096 23.2674C81.0537 23.0876 80.8187 22.8797 80.6091 22.6476V14.9508C80.8493 14.7703 81.0302 14.6103 81.2708 14.4495V14.3894C80.5754 13.6699 79.8183 13.0127 79.0082 12.4252H78.9482C77.7471 13.126 76.9238 13.668 75.7619 14.4693L75.9223 14.7288L76.7038 14.3077C76.911 14.4206 77.1058 14.555 77.2849 14.7087V22.8265C76.8839 22.9869 76.5236 23.147 76.1614 23.3089C75.8058 23.0945 75.482 22.8313 75.1994 22.5271L75.1974 14.1709ZM143.914 23.2508L143.754 22.9912C143.413 23.1315 143.134 23.2508 142.852 23.3922C142.607 23.2588 142.378 23.0969 142.171 22.9098V14.4495C141.695 13.6603 141.068 12.9724 140.327 12.4248H140.267C139.081 13.0481 137.971 13.8076 136.961 14.6878L137.161 14.9284C137.439 14.7406 137.727 14.5672 138.023 14.4088C138.322 14.6713 138.597 14.9597 138.844 15.2709V22.6669C138.634 22.8523 138.413 23.0258 138.183 23.1865V23.2465C138.878 24.0761 139.704 24.7869 140.627 25.3511H140.687C141.725 24.5925 142.802 23.89 143.914 23.2465L143.914 23.2508ZM54.1157 23.3267L53.9553 23.0671C53.6349 23.2074 53.3742 23.3081 53.0937 23.4278C52.913 23.3279 52.7448 23.2068 52.5927 23.0671V14.9311C52.9333 14.7505 53.3346 14.5704 53.7163 14.4119C54.0933 14.6545 54.4199 14.9676 54.6783 15.334V23.6324C55.2327 24.2971 55.8808 24.8777 56.6022 25.3561H56.6623C57.6401 24.5923 58.6641 23.8894 59.7284 23.2516L59.568 22.992C59.3135 23.1186 59.0527 23.2323 58.7866 23.3325C58.4884 23.1956 58.2221 22.9976 58.0051 22.7514V14.5293C57.5339 13.6441 56.8175 12.9134 55.9417 12.4248H55.8816C54.6849 12.9112 53.575 13.5884 52.595 14.4301C52.1077 13.6551 51.483 12.9755 50.7516 12.4248H50.6916C49.5051 13.0487 48.3954 13.8089 47.3848 14.6897L47.5855 14.9303C47.8637 14.7427 48.1513 14.5694 48.4472 14.4111C48.7461 14.6734 49.0211 14.9618 49.2689 15.2728V22.8277C49.0584 23.0077 48.8374 23.1751 48.6072 23.329V23.3891C49.2724 24.1406 50.0338 24.8011 50.8717 25.3534H50.9318C51.9517 24.6142 53.0157 23.9381 54.118 23.3287L54.1157 23.3267ZM164.196 20.3605V19.7407L169.206 17.0538V16.9736C168.145 15.5106 167.175 13.9839 166.301 12.4019H166.241C164.48 13.1545 162.664 13.7708 160.809 14.2457C160.93 15.1223 160.984 16.0068 160.97 16.8915V21.863C161.979 23.136 163.114 24.3042 164.357 25.3499H164.457C165.986 24.3359 167.565 23.3993 169.187 22.5437L168.947 22.183C168.186 22.5437 167.565 22.8645 166.942 23.145C165.939 22.3081 165.019 21.3749 164.197 20.359L164.196 20.3605ZM105.858 25.3538H105.918C106.96 24.5921 108.123 23.7502 109.105 23.128L108.944 22.8684C108.624 23.0086 108.343 23.1489 108.043 23.2895C107.787 23.1097 107.552 22.9017 107.342 22.6696V16.4165C107.298 15.6706 107.352 14.9221 107.503 14.1903C106.159 13.8699 104.036 13.028 103.174 12.4081H103.113C101.848 13.8907 100.369 15.1753 98.7239 16.2193V16.2995C99.5354 17.2549 100.619 17.9401 101.83 18.2638C100.842 18.7413 99.8242 19.1564 98.7839 19.5066C98.88 20.1701 98.9269 20.8397 98.9242 21.51V23.508C99.4844 24.2853 100.21 24.9288 101.048 25.3921H101.109C102.05 24.7106 103.072 24.0291 104.076 23.3868C104.561 24.133 105.162 24.7962 105.858 25.3511L105.858 25.3538ZM173.131 25.4111C174.672 24.353 176.379 23.5604 178.181 23.066C178.077 22.5923 178.03 22.1077 178.041 21.6228V18.3784L174.935 17.0155H174.853L173.952 18.0174L173.009 17.5962V14.4491C173.419 14.8822 173.913 15.2266 174.461 15.461C175.009 15.6955 175.6 15.8149 176.196 15.8121C176.425 15.8065 176.653 15.7797 176.877 15.7319C177.726 14.8377 178.237 13.6749 178.32 12.4445C178.187 12.4244 178.052 12.4244 177.919 12.4445C177.92 12.6741 177.893 12.9029 177.839 13.126C177.598 13.229 177.339 13.2835 177.077 13.2864C176.27 13.2683 175.502 12.9377 174.933 12.3643H174.873C173.328 13.3826 171.62 14.1283 169.823 14.5692C169.929 15.151 169.976 15.742 169.963 16.3332V19.3013L172.869 20.6244H172.949L173.871 19.6023L174.973 20.0847V23.2113C173.97 22.3854 172.705 21.9447 171.406 21.9684C171.177 21.974 170.948 22.0008 170.724 22.0486C169.874 22.9504 169.364 24.1196 169.281 25.3561C169.414 25.3762 169.55 25.3762 169.682 25.3561C169.682 25.1265 169.709 24.8977 169.763 24.6746C170.004 24.5716 170.262 24.5171 170.524 24.5142C171.46 24.4804 172.373 24.8109 173.07 25.4363H173.13L173.131 25.4111ZM85.9378 25.4111C87.4786 24.353 89.1856 23.5604 90.988 23.066C90.8836 22.5923 90.8365 22.1077 90.8478 21.6228V18.3784L87.7417 17.0155H87.6615L86.76 18.0174L85.8181 17.5962V14.4491C86.2277 14.8822 86.7218 15.2266 87.2699 15.461C87.818 15.6955 88.4083 15.8149 89.0044 15.8121C89.2335 15.8065 89.4617 15.7797 89.6859 15.7319C90.5351 14.8377 91.0454 13.6749 91.1287 12.4445C90.9958 12.4244 90.8606 12.4244 90.7277 12.4445C90.7284 12.6741 90.7014 12.9029 90.6475 13.126C90.4067 13.229 90.148 13.2835 89.8862 13.2864C89.0789 13.2684 88.3102 12.9378 87.7417 12.3643H87.701C86.1561 13.3826 84.4479 14.1283 82.6509 14.5692C82.7564 15.151 82.8034 15.742 82.7911 16.3332V19.3013L85.6969 20.6244H85.7771L86.6988 19.6023L87.8006 20.0847V23.2113C86.8501 22.4032 85.6415 21.9622 84.3939 21.9684C84.1648 21.974 83.9366 22.0008 83.7124 22.0486C82.8623 22.9502 82.3519 24.1193 82.2689 25.3557C82.4018 25.3758 82.5369 25.3758 82.6698 25.3557C82.6691 25.1261 82.696 24.8973 82.75 24.6742C82.9909 24.5712 83.2498 24.5167 83.5117 24.5138C84.3945 24.5091 85.2464 24.8385 85.8964 25.4359H85.9351L85.9378 25.4111ZM129.264 22.0428L129.245 22.0234C129.405 21.6023 129.425 21.3225 129.425 20.2598V14.4483C129.426 13.7894 129.366 13.1318 129.245 12.484L129.666 12.3039C129.774 12.953 129.828 13.6101 129.826 14.2682V19.9611C129.807 21.3241 129.706 21.6046 129.265 22.0459L129.264 22.0428ZM68.1276 24.7536L67.7266 25.0132C67.0958 24.4818 66.5545 23.8525 66.1234 23.1493V14.5905C61.9949 12.2454 61.5339 11.985 61.1333 11.8041L61.0333 11.2229H61.0527L66.5031 14.4301V22.968C66.9514 23.6402 67.4985 24.2411 68.126 24.7501L68.1276 24.7536ZM132.313 12.7444C132.313 11.8025 132.333 11.4829 132.735 11.0808C132.915 11.1001 133.296 11.161 133.516 11.1807V22.5058C132.942 22.667 132.349 22.7479 131.753 22.7463C130.906 22.754 130.065 22.6114 129.268 22.3252C130.391 21.8843 131.554 21.383 132.454 20.9429C132.362 20.2921 132.316 19.6358 132.314 18.9786L132.313 12.7444ZM93.1158 13.8067C93.1158 12.7045 93.0557 11.8033 93.0158 11.321L93.4982 10.9804H93.5176V22.0668L93.1572 22.3473H93.117L93.1158 13.8067ZM30.7102 10.5213C29.6281 12.0447 29.4491 12.3853 29.4491 14.2496V19.3005C29.4491 21.6054 29.3487 22.5282 27.7657 24.3716L27.7463 24.3523C29.0291 22.6689 29.069 21.7464 29.069 19.4214V14.3495C29.069 12.4856 29.2697 12.1447 30.6919 10.5213H30.7102ZM39.2871 24.7529L38.8861 25.0124C38.19 24.5557 37.5682 23.9946 37.0427 23.3488V12.6642C37.0622 11.8981 37.0018 11.132 36.8626 10.3784L37.3449 10.0378C37.4297 10.8499 37.4631 11.6666 37.4449 12.4829V23.1903C37.9718 23.8066 38.5942 24.3344 39.2883 24.7536L39.2871 24.7529ZM30.8892 9.51903L30.9085 9.5384C30.4818 9.88639 29.9555 10.0899 29.4057 10.1195C28.8245 10.1195 28.3236 9.83905 27.8025 9.83905C27.5708 9.83227 27.3402 9.87141 27.1237 9.95419C26.9073 10.037 26.7094 10.1618 26.5414 10.3214C26.41 10.4412 26.3014 10.5839 26.221 10.7425H26.2016C26.262 10.4621 26.4011 10.2047 26.6026 10.0006C26.9628 9.67241 27.4376 9.49914 27.9245 9.51825C28.4859 9.51825 29.0481 9.79875 29.6482 9.79875C30.0779 9.79766 30.5022 9.70189 30.8907 9.51825L30.8892 9.51903ZM43.113 9.27804C43.6007 9.90059 44.1296 10.4898 44.6961 11.0416L44.3757 11.2419C43.8118 10.6993 43.2955 10.1093 42.8325 9.47835L43.113 9.27804ZM138.964 9.25868C139.464 9.8827 139.999 10.4777 140.567 11.0409L140.247 11.2412C139.675 10.6878 139.146 10.092 138.663 9.45898L138.964 9.25868ZM124.073 12.5863C124.177 12.0227 124.442 11.501 124.834 11.0831C125.576 10.3412 126.677 9.98084 128.141 9.98084C130.427 9.98084 133.151 10.6817 134.934 10.6817C135.856 10.6817 136.617 10.2807 137.239 9.17848L137.299 9.19785C136.637 10.5411 135.856 11.0017 134.833 11.0017C133.051 11.0017 130.365 10.3009 128.04 10.3009C126.597 10.3009 125.575 10.6616 124.854 11.383C124.514 11.7148 124.254 12.1191 124.092 12.5658H124.073V12.5863ZM96.3784 8.89759L96.2784 8.83754C94.7756 9.77977 93.5923 10.6015 92.7315 11.2629C92.798 11.7747 92.8314 12.2903 92.8314 12.8064C92.5203 13.5129 92.1587 14.196 91.7493 14.8505L91.8094 14.9307H92.8318V22.467C92.5916 22.6472 92.4107 22.7874 92.1701 22.9494V23.0094C93.0727 23.9638 94.1048 24.7869 95.2362 25.4545H95.2963C96.3083 24.694 97.3805 24.0172 98.5023 23.4306L98.3419 23.171C98.1029 23.2656 97.8689 23.3726 97.641 23.4914C97.1171 23.2156 96.6147 22.9006 96.1382 22.5491V14.9508H96.2784C96.9006 14.9437 97.5227 14.9705 98.142 15.031C99.1036 13.7695 99.5239 13.0667 99.6851 12.6057L99.625 12.5456C98.8415 12.6477 98.0518 12.6946 97.2617 12.6859H96.1382C96.1405 11.4193 96.2207 10.154 96.3784 8.8972V8.89759ZM67.7014 25.3538H67.7615C68.8033 24.5921 69.966 23.8106 70.9477 23.169L70.7873 22.9095C70.4669 23.0497 70.186 23.1903 69.8857 23.3306C69.6284 23.1366 69.3933 22.9147 69.1849 22.6689V16.2131C69.1849 14.8307 69.2449 14.1492 69.2852 13.6076C63.213 9.86036 61.5098 8.69651 60.5882 7.6547L60.4878 7.67408C60.4743 9.12247 60.6221 10.5678 60.9287 11.9835C61.8415 12.3975 62.7252 12.8729 63.5737 13.4065C62.5722 13.9079 61.4494 14.408 60.3875 14.8497C60.4734 15.7289 60.5068 16.6123 60.4874 17.4955V23.2682C61.0888 24.1154 61.8692 24.82 62.7733 25.3321H62.8333C63.7752 24.6506 64.8383 23.9497 65.8592 23.307C66.3506 24.09 66.9743 24.7816 67.7026 25.3511L67.7014 25.3538ZM44.335 11.5836H44.395C45.357 10.9219 45.9982 10.4601 46.8397 9.77977V9.71972C46.2641 8.98512 45.6487 8.28256 44.9963 7.61519H44.9363C44.1548 8.17658 43.3331 8.73875 42.471 9.45937V9.51942C43.0249 10.2653 43.6489 10.9564 44.3346 11.5833L44.335 11.5836ZM140.145 11.5833H140.205C141.167 10.9215 141.808 10.4597 142.649 9.77938V9.71933C142.074 8.98472 141.458 8.28216 140.806 7.6148H140.746C139.964 8.17619 139.143 8.73836 138.281 9.45898V9.51903C138.84 10.2602 139.464 10.9508 140.144 11.5829L140.145 11.5833ZM33.8755 23.6708L33.8948 23.6107V16.9756H36.8006V23.4898C37.3969 24.2055 38.0917 24.833 38.8641 25.3538H38.9241C40.0347 24.5255 41.1924 23.7623 42.3912 23.0679L42.2308 22.7874C41.8903 22.9277 41.611 23.0679 41.3091 23.2086C40.9136 23.0199 40.5699 22.7379 40.3076 22.3868V11.443C40.2724 10.1669 40.4141 8.89196 40.7288 7.6547L40.6288 7.59465C39.1926 8.39284 37.8311 9.31867 36.5608 10.3609C36.749 11.1277 36.8298 11.917 36.801 12.706V14.7315H33.9173V11.2652C33.9173 9.26177 34.0576 8.71937 34.3997 7.67718L34.3195 7.6578C33.6186 8.62018 33.3776 9.43999 33.3776 11.4663V23.2322C32.8893 22.9792 32.3444 22.855 31.7946 22.8715C31.0467 22.8754 30.306 23.0182 29.6102 23.2926L29.5909 23.2733C32.1557 20.9874 32.2359 20.5864 32.2359 18.9236V11.8242C32.2359 9.71971 32.4954 8.79764 33.0576 7.77443L32.9774 7.69423C32.4892 7.9971 31.9288 8.16366 31.3545 8.17658C30.573 8.17658 29.5111 7.77559 28.5688 7.77559C27.886 7.75705 27.2235 8.00894 26.7254 8.47645C26.2773 8.93075 26.0257 9.54301 26.0249 10.1811C26.0262 10.528 26.0803 10.8726 26.1853 11.2032H26.2454C26.3177 10.9508 26.4561 10.7223 26.6464 10.5415C26.7919 10.4002 26.9646 10.29 27.154 10.2176C27.3434 10.1452 27.5456 10.1121 27.7482 10.1203C28.3681 10.1203 28.79 10.3799 29.3712 10.3799C29.9523 10.3799 30.413 10.1796 31.3153 9.55815L31.3347 9.57753C28.9714 12.0432 28.89 12.4833 28.89 14.3883V14.7288C28.5278 14.7148 28.1665 14.6814 27.8079 14.6285C27.108 15.4009 26.4586 16.2176 25.8638 17.0736L25.9238 17.1336C26.5602 17.0338 27.2037 16.9869 27.8478 16.9934H28.8896V20.2408C28.8896 22.2442 28.6091 23.0671 26.9257 25.2317L27.0059 25.3321C27.8315 24.9595 28.7251 24.7616 29.6308 24.7509C29.934 24.7359 30.2372 24.7813 30.5228 24.8845C30.8083 24.9878 31.0705 25.1467 31.294 25.3522H31.3541C32.1198 24.6847 32.9686 24.1189 33.8794 23.6688L33.8755 23.6708ZM126.081 17.2553C126.084 16.4162 126.256 15.5864 126.587 14.8152C126.917 14.044 127.4 13.3471 128.005 12.7661L127.925 12.6658C126.774 13.0417 125.729 13.6876 124.879 14.5495C123.81 15.6331 123.212 17.0952 123.215 18.6175C123.197 19.4895 123.359 20.3558 123.69 21.1627C124.021 21.9696 124.514 22.6998 125.139 23.3077C126.502 24.6707 128.386 25.4526 130.73 25.4526C131.68 25.4854 132.626 25.3245 133.512 24.9798C134.397 24.635 135.203 24.1136 135.881 23.4472C136.948 22.3506 137.557 20.8887 137.585 19.3586L137.445 19.3393C136.715 20.7082 135.511 21.7637 134.058 22.3074V11.2264C134.459 11.2458 134.678 11.2458 134.8 11.2458C136.323 11.2458 137.486 10.2838 138.086 7.3374L137.946 7.27734C137.365 8.05918 136.603 8.31954 135.521 8.31954C133.758 8.31954 130.872 7.61868 128.728 7.61868C127.045 7.61868 125.622 8.13823 124.679 9.08201C124.345 9.4024 124.082 9.78896 123.906 10.217C123.73 10.645 123.645 11.1051 123.657 11.5678C123.662 12.126 123.778 12.6777 123.997 13.1911H124.077C124.209 12.5865 124.507 12.0309 124.939 11.5875C125.621 10.906 126.602 10.5054 127.985 10.5054C129.43 10.5492 130.87 10.6965 132.294 10.9463C131.212 11.3473 129.828 11.9087 128.926 12.3287C129.07 13.0617 129.137 13.8076 129.126 14.5545V20.6279C129.126 21.4496 129.107 21.7902 128.867 22.0912C128.44 21.8947 128.048 21.6307 127.705 21.3094C127.171 20.7804 126.751 20.1477 126.471 19.4503C126.191 18.753 126.057 18.0057 126.077 17.2545" fill="#333333"/>
</svg>
