<?xml version="1.0" encoding="UTF-8"?>
<svg width="140px" height="44px" viewBox="0 0 140 44" version="1.1" xmlns="http://www.w3.org/2000/svg" xmlns:xlink="http://www.w3.org/1999/xlink">
    <title>HT-Digital (1)</title>
    <g id="SSO-LIght-mode-updated" stroke="none" stroke-width="1" fill="none" fill-rule="evenodd">
        <g id="SSO_HT_Desktop" transform="translate(-650.000000, -829.000000)" fill-rule="nonzero">
            <g id="HT-Digital-(1)" transform="translate(650.000000, 829.000000)">
                <polygon id="Path" fill="#53C6D6" points="36.9147692 11.11335 19.222 21.31295 11.0363077 16.59585 20.4755385 11.16065 19.2133846 10.4318 9.77307692 15.868075 1.52707692 11.1155 19.2209231 0.9159"></polygon>
                <g id="Group" transform="translate(0.000000, 11.825000)" fill="#ED2024">
                    <polygon id="Path" points="18.5026154 30.877225 0.807692308 20.6787 0.805538462 11.1628 18.5015385 21.371"></polygon>
                    <polygon id="Path" points="18.5015385 19.9176 0.805538462 9.7094 0.805538462 0.282725 18.5004615 10.480175"></polygon>
                </g>
                <g id="Group" transform="translate(19.384615, 11.825000)" fill="#3A53A4">
                    <polygon id="Path" points="18.0535385 0.28165 18.0535385 20.67655 9.79784615 25.43665 9.80646154 5.0353"></polygon>
                    <polygon id="Path" points="8.54646154 5.760925 8.53784615 26.16335 0.358615385 30.877225 0.358615385 10.48125"></polygon>
                </g>
                <text id="STREAMS-LIMITED" fill="#5C5C5C" font-family="Helvetica" font-size="10" font-weight="normal">
                    <tspan x="42" y="31.95">STREAMS LIMITED</tspan>
                </text>
                <text id="HT" fill="#3951A6" font-family="Arial-BoldMT, Arial" font-size="14" font-weight="bold">
                    <tspan x="42" y="22.2171753">HT</tspan>
                </text>
                <text id="DIGITAL" fill="#4DC6D7" font-family="Arial-BoldMT, Arial" font-size="14" font-weight="bold">
                    <tspan x="67.5676682" y="22.2171753">DIGITAL</tspan>
                </text>
            </g>
        </g>
    </g>
</svg>