<svg width="64" height="28" viewBox="0 0 64 28" fill="none" xmlns="http://www.w3.org/2000/svg">
<path fill-rule="evenodd" clip-rule="evenodd" d="M8.59883 22.8575H0V20.1753H0.858475C1.23846 20.1753 1.36512 19.9781 1.36512 19.6494V12.9304C1.36512 12.6017 1.22438 12.4045 0.858475 12.4045H0V9.6433H7.62777V11.6419C8.54253 10.0772 10.0062 9.36719 12.0609 9.36719C14.8474 9.36719 15.8466 10.3533 16.1703 11.8918C17.0288 10.1429 18.5487 9.36719 20.716 9.36719C24.2625 9.36719 24.938 10.9581 24.938 13.3117V19.6494C24.938 19.9781 25.1069 20.1753 25.5291 20.1753H26.2609V22.8575H17.8028V20.1753H18.1546C18.5065 20.1753 18.6613 19.9781 18.6613 19.6494V13.9165C18.6613 12.8252 18.3939 12.4835 17.5776 12.4835C16.494 12.4835 16.2829 13.3117 16.2829 14.6003V19.623C16.2829 19.9781 16.4518 20.1753 16.7895 20.1753H17.2539V22.8575H9.14769V20.1753H9.49952C9.85136 20.1753 10.0062 19.9781 10.0062 19.6494V13.9165C10.0062 12.8252 9.73877 12.4835 8.92251 12.4835C7.83887 12.4835 7.62777 13.3117 7.62777 14.6003V19.623C7.62777 19.9781 7.7685 20.1753 8.13441 20.1753H8.59883V22.8575Z" fill="#F7941D"/>
<path fill-rule="evenodd" clip-rule="evenodd" d="M31.1882 3C32.9192 3 34.3265 4.31484 34.3265 5.9321C34.3265 7.52306 32.9192 8.8379 31.1882 8.8379C29.4853 8.8379 28.0779 7.52306 28.0779 5.9321C28.0779 4.31484 29.4853 3 31.1882 3ZM28.1061 12.9271C28.1061 12.5983 27.9653 12.4011 27.5994 12.4011H26.741V9.63995H34.3687V19.6196C34.3687 19.9746 34.5095 20.1718 34.8754 20.1718H35.6916V22.8541H26.741V20.1718H27.5994C27.9794 20.1718 28.1061 19.9746 28.1061 19.6459V12.9271Z" fill="#F7941D"/>
<path fill-rule="evenodd" clip-rule="evenodd" d="M44.7555 22.8575H36.1565V20.1753H37.0151C37.395 20.1753 37.5218 19.9781 37.5218 19.6494V12.9304C37.5218 12.6017 37.381 12.4045 37.0151 12.4045H36.1565V9.6433H43.7844V11.6682C44.6427 10.0772 46.0782 9.36719 48.4286 9.36719C51.6936 9.36719 52.538 10.9581 52.538 13.3117V19.6494C52.538 19.9781 52.6788 20.1753 53.101 20.1753H53.8608V22.8575H45.2902V20.1753H45.7547C46.1065 20.1753 46.2612 19.9781 46.2612 19.6494V13.9165C46.2612 12.8252 45.9658 12.4835 45.1777 12.4835C44.094 12.4835 43.7703 13.3117 43.7703 14.6003V19.623C43.7703 19.9781 43.9111 20.1753 44.277 20.1753H44.7412V22.8575H44.7555Z" fill="#F7941D"/>
<mask id="mask0" mask-type="alpha" maskUnits="userSpaceOnUse" x="52" y="6" width="12" height="18">
<path d="M52.9744 6.55469H63.0931V23.0034H52.9744V6.55469Z" fill="white"/>
</mask>
<g mask="url(#mask0)">
<path fill-rule="evenodd" clip-rule="evenodd" d="M52.9744 9.64457L54.4943 9.56568L54.7335 6.55469H60.5178V9.63142H62.9524V12.3531H60.5178V18.0859C60.5178 19.6505 60.8414 20.1502 62.685 20.1502H63.0931V22.8324C61.8828 22.9639 60.6021 23.0034 59.392 23.0034C56.0424 23.0034 54.5224 22.0698 54.2832 19.4138V12.3794H52.9886V9.64457H52.9744Z" fill="#F7941D"/>
</g>
</svg>
