<svg width="130" height="16" viewBox="0 0 130 16" fill="none" xmlns="http://www.w3.org/2000/svg">
<path d="M5.26673 15.2584L4.97907 15.4842C4.6236 15.1705 3.98065 15.0312 3.47295 15.0312C2.86847 15.0313 2.27209 15.1744 1.72979 15.4494V15.4319C2.33815 15.0238 3.05072 14.8114 3.77669 14.8218C4.2844 14.8043 4.89372 14.9438 5.266 15.2576L5.26673 15.2584ZM121.97 14.9962C121.987 14.8809 122.034 14.7724 122.105 14.6824C122.297 14.6187 122.497 14.5892 122.698 14.5952C123.425 14.5952 124.356 14.7695 124.999 15.4319L124.729 15.6062C124.153 15.031 123.222 14.8742 122.596 14.8742C122.382 14.8725 122.169 14.914 121.97 14.9962H121.97ZM48.4717 14.9962C48.4885 14.8809 48.5353 14.7725 48.6071 14.6824C48.7983 14.6187 48.9986 14.5892 49.1994 14.5952C49.8939 14.5952 50.7563 14.8043 51.3656 15.4319L51.0948 15.6062C50.5363 15.0658 49.6733 14.8742 49.0978 14.8742C48.8835 14.8743 48.6712 14.9157 48.4717 14.9962ZM20.2096 13.8458C20.6992 14.4005 21.2568 14.887 21.8684 15.2932L21.5299 15.5191C20.9293 15.112 20.3831 14.6256 19.9052 14.0723L20.2096 13.8458ZM100.9 13.8458C101.39 14.4003 101.947 14.8866 102.559 15.2926L102.22 15.5185C101.62 15.1114 101.074 14.625 100.596 14.0717L100.9 13.8458ZM71.5384 13.8458C72.0279 14.4002 72.5854 14.8866 73.1969 15.2926L72.8585 15.5185C72.2579 15.1114 71.7116 14.625 71.2337 14.0717L71.5384 13.8458ZM95.8574 13.7412C96.3727 14.3587 96.9848 14.883 97.6682 15.2924L97.3297 15.5183C96.6649 15.0964 96.0658 14.5734 95.5527 13.9671L95.8574 13.7412ZM15.1496 13.7412C15.6688 14.3546 16.2802 14.8783 16.9604 15.2924L16.6219 15.5183C15.9571 15.0964 15.358 14.5734 14.8449 13.9671L15.1496 13.7412ZM56.9842 13.5153C57.6964 14.2301 58.4923 14.8507 59.3535 15.3628L59.015 15.6075C58.1627 15.0906 57.3779 14.4639 56.6795 13.7425L56.9842 13.5153ZM63.889 15.5198C63.2722 15.1421 62.7323 14.6449 62.299 14.0557V12.3479C62.3059 11.8356 62.2833 11.3234 62.2314 10.8139L62.5869 10.6745C62.6039 11.0927 62.6377 11.6331 62.6377 12.1736V13.9341C62.9253 14.3699 63.5685 14.8928 64.2277 15.2762L63.889 15.5198ZM126.539 14.1081V11.0923L125.54 10.6393L125.743 10.4134L126.876 10.9188V14.3874L126.826 14.4049L126.539 14.1081ZM52.9052 14.1081V11.0923L51.9068 10.6393L52.1098 10.4134L53.2429 10.9188V14.3874L53.1921 14.4049L52.9052 14.1081ZM64.7684 11.2495C64.7461 10.7467 64.7859 10.2431 64.8869 9.7506C65.3797 9.89009 65.8838 9.98339 66.393 10.0294V13.6898C66.1221 13.8118 65.8345 13.9157 65.5976 14.0384C65.3 13.8619 65.0268 13.645 64.7853 13.3935V11.2495H64.7684ZM7.17912 8.02467H9.61621V8.32095H7.17912V8.02467ZM0.714386 8.4081L1.01904 8.02467H2.89799V8.32095H2.08563C1.62715 8.30982 1.1686 8.33897 0.714934 8.4081H0.714386ZM31.9217 15.2932L31.5833 15.5191C30.9113 15.0991 30.325 14.5485 29.8571 13.898V8.91351C29.8571 7.72763 29.8401 7.22279 29.8063 6.80528L30.1786 6.64848V13.7775C30.6017 14.4051 31.2278 14.8582 31.9217 15.2939V15.2932ZM62.4854 7.95578C63.0777 7.53752 63.6368 7.08424 64.1948 6.61366C64.8582 7.08203 65.6064 7.40807 66.3948 7.57234V9.6465C64.6517 9.4897 63.3994 8.91446 62.4854 7.95578ZM117.199 6.61366L117.25 6.59615C117.708 7.58894 118.258 8.5344 118.891 9.41968L117.199 10.3609V6.61366ZM124.764 11.2328L124.544 11.4775L122.31 10.3968V7.79916C122.31 7.39731 122.287 6.99581 122.243 6.59653L122.649 6.47455V10.2208L124.764 11.2328ZM51.1301 11.2328L50.9108 11.4775L48.6769 10.3968V7.79916C48.676 7.3973 48.6534 6.99581 48.6093 6.59653L49.0154 6.47455V10.2208L51.1301 11.2328ZM93.3877 13.8116C92.474 14.8922 90.8324 15.7114 89.0047 15.7114C87.0754 15.7114 85.5523 15.0666 84.4185 13.9336C83.9036 13.4039 83.4974 12.7729 83.2242 12.0782C82.9511 11.3834 82.8165 10.6392 82.8285 9.8897C82.8285 8.54758 83.3532 7.39709 84.3178 6.42109L84.3348 6.4386C83.5224 7.46712 83.1672 8.44312 83.1672 9.73272C83.1613 10.4709 83.2989 11.2029 83.572 11.8854C83.8451 12.568 84.248 13.1873 84.7571 13.7069C85.8064 14.7876 87.261 15.3803 89.1235 15.3803C90.9004 15.3803 92.3217 14.8051 93.3881 13.8116H93.3877ZM56.9509 6.54307H56.3586L56.5278 6.22928H56.9509V6.54307ZM61.6049 6.24678L61.334 6.6129C61.0294 6.56057 60.7417 6.54326 59.744 6.54326V6.23022H61.5716L61.6049 6.24678ZM117.418 15.572C116.427 14.6948 115.515 13.7262 114.694 12.6784V8.26862C114.694 7.39709 114.643 6.63097 114.609 6.33375L114.965 6.24659C115.02 6.81412 115.043 7.38454 115.032 7.95483V12.5391C115.852 13.5609 116.758 14.5057 117.74 15.3626L117.418 15.572ZM68.2891 15.2932L67.9506 15.5191C67.4248 15.0699 66.9682 14.5409 66.5968 13.9503V7.4146C65.7852 7.24848 65.0141 6.91655 64.3291 6.43841L64.5667 6.19371C65.0914 6.62947 66.0728 6.99559 66.919 7.20472V13.8118C67.3166 14.3604 67.7768 14.8578 68.2897 15.2934L68.2891 15.2932ZM26.7089 15.2934L26.3704 15.5193C25.8464 15.1384 25.3691 14.6937 24.9489 14.1946V7.03116C24.7316 6.70698 24.4559 6.42887 24.1366 6.21196L24.4412 6.07248C24.7725 6.30751 25.0592 6.60286 25.2874 6.94401V14.073C25.7113 14.5378 26.1886 14.9476 26.7089 15.2932V15.2934ZM78.0207 15.2932L77.6822 15.5191C77.1582 15.1383 76.6809 14.6935 76.2607 14.1945V7.03116C76.0434 6.70698 75.7676 6.42887 75.4483 6.21196L75.753 6.07248C76.0842 6.30752 76.371 6.60287 76.5992 6.94401V14.073C77.0268 14.5337 77.5037 14.943 78.0207 15.2932ZM107.4 15.2932L107.061 15.5191C106.537 15.1383 106.06 14.6935 105.64 14.1945V7.03116C105.422 6.70699 105.147 6.42887 104.827 6.21196L105.132 6.07248C105.463 6.30751 105.75 6.60286 105.978 6.94401V14.073C106.406 14.5336 106.883 14.943 107.4 15.2932H107.4ZM111.968 15.2932L111.63 15.5191C111.106 15.1383 110.629 14.6935 110.209 14.1945V7.03116C109.984 6.69625 109.696 6.41163 109.362 6.19446L109.667 6.05498C110 6.30082 110.291 6.60113 110.53 6.94401V14.073C110.968 14.5294 111.45 14.9382 111.968 15.2932ZM71.7082 13.5149V6.97883C71.5122 6.67592 71.2725 6.40552 70.9974 6.17695L71.2851 6.02015C71.5723 6.25815 71.8282 6.53351 72.0466 6.83935V13.2538L71.742 13.4986H71.7082V13.5149ZM96.0272 13.393V6.97883C95.8258 6.68024 95.5868 6.41057 95.3164 6.17695L95.6041 6.02015C95.8911 6.25833 96.1471 6.53367 96.3656 6.83935V13.1492L96.061 13.3939H96.0272V13.393ZM39.8076 13.7764C40.1799 14.3691 40.8568 14.8919 41.5338 15.2755L41.1953 15.5014C40.5094 15.1008 39.9195 14.5469 39.4691 13.8803V6.71737C39.2422 6.50004 38.9856 6.31799 38.7076 6.17695L38.9952 6.02015C39.2827 6.19069 39.5496 6.39546 39.7906 6.63022V13.7768L39.8076 13.7764ZM101.087 13.5149V6.97883C100.891 6.67592 100.651 6.40552 100.376 6.17695L100.664 6.02015C100.951 6.25815 101.207 6.53351 101.425 6.83935V13.2538L101.12 13.4986H101.087V13.5149ZM15.3362 13.393V6.97883C15.1349 6.68023 14.8959 6.41056 14.6254 6.17695L14.9131 6.02015C15.2001 6.25832 15.4561 6.53366 15.6747 6.83935V13.1492L15.37 13.3939H15.3362V13.393ZM20.3794 13.5149V6.97883C20.1834 6.67592 19.9437 6.40552 19.6687 6.17695L19.9563 6.02015C20.2435 6.25815 20.4995 6.53351 20.7179 6.83935V13.2538L20.4132 13.4986H20.3794V13.5149ZM44.0383 6.4561C43.8873 6.3221 43.7228 6.20522 43.5476 6.10749L43.8353 5.95069C44.0271 6.06599 44.2035 6.20667 44.3599 6.36914V13.812C44.724 14.3833 45.1822 14.8847 45.7138 15.2936L45.3754 15.5194C44.8203 15.081 44.3594 14.5291 44.0215 13.8984V6.4561H44.0383ZM32.4289 8.25149C32.4289 6.76989 32.4797 6.19465 32.6482 5.67267C33.0713 5.91738 33.562 6.2129 34.1543 6.57902V13.6378C33.8497 13.7598 33.5282 13.8826 33.2405 14.0213C32.9403 13.8349 32.6668 13.6061 32.4282 13.3416L32.4289 8.25149ZM128.08 6.92669L127.842 7.24048C127.701 7.29036 127.552 7.31395 127.402 7.31013C126.879 7.30935 126.362 7.1903 125.889 6.96139C125.415 6.73248 124.996 6.39929 124.661 5.98532V5.63671H124.712C125.051 6.06242 125.477 6.40631 125.96 6.64421C126.442 6.8821 126.969 7.00821 127.504 7.01366C127.701 7.00673 127.896 6.96549 128.079 6.89168L128.08 6.92669ZM54.463 6.92669L54.2255 7.24048C54.0839 7.29037 53.9349 7.31396 53.7854 7.31013C53.2621 7.30935 52.7455 7.1903 52.2718 6.96139C51.7981 6.73248 51.379 6.39929 51.044 5.98532V5.63671H51.0948C51.4343 6.06242 51.8603 6.40631 52.3427 6.64421C52.8251 6.8821 53.3523 7.00821 53.8872 7.01366C54.0843 7.00673 54.2788 6.96549 54.4625 6.89168L54.463 6.92669ZM119.06 9.33196C118.346 8.30469 117.723 7.21387 117.198 6.07248V5.53206L117.249 5.51455C117.819 6.8139 118.523 8.04681 119.347 9.19229L119.06 9.33196ZM104.726 14.1777L104.59 13.9518C104.421 14.0215 104.252 14.0913 104.1 14.161C103.94 14.0764 103.792 13.9709 103.66 13.8472V6.76952C103.947 6.61272 104.286 6.45573 104.607 6.31625C104.926 6.52723 105.201 6.7995 105.42 7.11813V14.3343C105.888 14.9125 106.435 15.4174 107.044 15.8334H107.095C107.868 15.2257 108.676 14.6669 109.515 14.16L109.38 13.9341L108.906 14.1433C108.646 13.991 108.412 13.7968 108.212 13.568V6.76971C108.499 6.61291 108.838 6.45591 109.159 6.31643C109.477 6.52741 109.753 6.79969 109.971 7.11832V14.3345C110.44 14.9126 110.987 15.4175 111.596 15.8334H111.647C112.527 15.1537 113.221 14.6475 114.236 14.0032L114.101 13.7773C113.886 13.8875 113.666 13.9864 113.441 14.0736C113.189 13.9545 112.964 13.7824 112.781 13.5682V6.42109C112.383 5.65108 111.778 5.01563 111.038 4.59088H110.987C109.967 5.02338 109.019 5.61733 108.178 6.35125C107.79 5.60298 107.195 4.99026 106.469 4.59088H106.418C105.407 5.01358 104.47 5.60224 103.642 6.33394C103.231 5.6602 102.703 5.0695 102.085 4.59088H102.035C101.033 5.13349 100.096 5.79451 99.2423 6.56057L99.4115 6.76971C99.6308 6.61291 99.9024 6.45591 100.139 6.31643C100.392 6.54459 100.624 6.79543 100.834 7.06599V13.6373C100.631 13.7941 100.461 13.9336 100.275 14.073V14.1254C100.837 14.779 101.48 15.3533 102.188 15.8336H102.238C103.031 15.2253 103.862 14.6719 104.726 14.1771L104.726 14.1777ZM19.3646 13.9855L19.2291 13.7596C18.9415 13.8816 18.7044 13.9855 18.4676 14.1082C18.2605 13.9926 18.0674 13.8522 17.8923 13.69V6.33394C17.4903 5.64771 16.9613 5.04952 16.3353 4.57338H16.2845C15.2826 5.11601 14.3455 5.77703 13.4922 6.54307L13.6614 6.7522C13.8963 6.58851 14.1392 6.43729 14.3891 6.29912C14.6417 6.52728 14.8741 6.77812 15.0836 7.04867V13.4805C14.9058 13.6422 14.7194 13.7935 14.5251 13.9338V13.9861C15.1125 14.7076 15.81 15.3257 16.5903 15.8163H16.6411C17.5719 15.1366 18.2826 14.6492 19.3658 13.9861L19.3646 13.9855ZM75.5686 14.0557L75.4332 13.8298C75.1623 13.9518 74.9424 14.039 74.7054 14.1436C74.5528 14.0566 74.4108 13.9513 74.2823 13.8298V6.7522C74.57 6.59521 74.9085 6.43841 75.2301 6.29893C75.5484 6.50993 75.8243 6.7822 76.0425 7.10081V14.317C76.5107 14.8951 77.058 15.4001 77.6672 15.8161H77.718C78.5438 15.1518 79.4085 14.5406 80.3073 13.9859L80.1719 13.76C79.9569 13.8702 79.7367 13.9691 79.512 14.0563C79.2601 13.9372 79.0353 13.765 78.852 13.5509V6.40359C78.4539 5.63358 77.8487 4.99813 77.1089 4.57338H77.0581C76.0476 4.9961 75.1103 5.58475 74.2827 6.31643C73.871 5.64271 73.3434 5.05202 72.7258 4.57338H72.675C71.673 5.116 70.7359 5.77702 69.8826 6.54307L70.0518 6.7522C70.2868 6.58843 70.5296 6.43714 70.7796 6.29893C71.0322 6.52708 71.2646 6.77792 71.4741 7.04848V13.6198C71.2964 13.7762 71.1099 13.9217 70.9156 14.0555V14.1079C71.4773 14.7614 72.1203 15.3358 72.8279 15.8161H72.8787C73.7375 15.1695 74.6363 14.5814 75.5695 14.0555L75.5686 14.0557ZM42.0413 6.0898C41.5813 5.50356 41.0327 4.99738 40.4166 4.59069H40.3658C39.3842 5.20076 38.7758 5.68886 37.7764 6.42091L37.9118 6.64678C38.1149 6.52481 38.3179 6.4209 38.5042 6.29817C38.7683 6.44537 39.0129 6.62701 39.2319 6.8386V14.0025C39.7394 14.7394 40.398 15.3523 41.1611 15.7978H41.2119C42.0243 15.1878 42.9213 14.5602 43.7843 14.02C44.2112 14.6971 44.7428 15.2977 45.3582 15.7978H45.409C46.289 15.1354 47.2706 14.4034 48.0997 13.863L47.9643 13.6371C47.6935 13.7591 47.4566 13.8818 47.2028 14.0032C46.9864 13.8464 46.7877 13.6651 46.6104 13.4628V6.76971C46.8135 6.61291 46.9659 6.47342 47.169 6.33394V6.28161C46.5811 5.6558 45.9412 5.08421 45.2566 4.57338H45.2067C44.1913 5.18345 43.4973 5.65403 42.5159 6.35125L42.6513 6.57714L43.3113 6.21102C43.4863 6.30916 43.6507 6.42601 43.802 6.55964V13.6185C43.4635 13.7579 43.1589 13.8974 42.8542 14.0369C42.5539 13.8505 42.2805 13.6217 42.0418 13.3572L42.0413 6.0898ZM100.071 13.9855L99.9355 13.7596C99.6478 13.8816 99.4109 13.9855 99.1739 14.1082C98.9668 13.9926 98.7737 13.8522 98.5986 13.69V6.33394C98.1966 5.64771 97.6676 5.04952 97.0417 4.57338H96.9908C95.9889 5.116 95.0518 5.77702 94.1985 6.54307L94.3677 6.7522C94.6026 6.58851 94.8456 6.43729 95.0955 6.29912C95.3481 6.52728 95.5805 6.77812 95.7899 7.04867V13.4805C95.6121 13.6422 95.4257 13.7935 95.2314 13.9338V13.9861C95.8188 14.7076 96.5163 15.3257 97.2966 15.8163H97.3478C98.2231 15.1565 99.1321 14.5453 100.071 13.9855ZM24.2371 14.0552L24.1017 13.8293C23.8308 13.9513 23.611 14.0384 23.3739 14.1431C23.2213 14.0561 23.0793 13.9507 22.9508 13.8293V6.75163C23.2385 6.59465 23.577 6.43785 23.8986 6.29836C24.217 6.50935 24.4928 6.78161 24.711 7.10024V14.3164C25.1792 14.8946 25.7265 15.3995 26.3357 15.8155H26.3865C27.2123 15.1513 28.0771 14.54 28.9759 13.9853L28.8404 13.7594C28.6254 13.8696 28.4052 13.9685 28.1805 14.0557C27.9286 13.9367 27.7038 13.7645 27.5205 13.5503V6.40359C27.1224 5.63358 26.5172 4.99813 25.7774 4.57338H25.7266C24.7161 4.99609 23.7788 5.58474 22.9512 6.31643C22.5395 5.64271 22.0119 5.05202 21.3943 4.57338H21.3435C20.3416 5.11601 19.4045 5.77703 18.5511 6.54307L18.7203 6.7522C18.9553 6.58844 19.1982 6.43715 19.4481 6.29893C19.7007 6.52709 19.9331 6.77793 20.1426 7.04848V13.6198C19.9649 13.7762 19.7784 13.9217 19.5841 14.0555V14.1079C20.1458 14.7614 20.7888 15.3358 21.4964 15.8161H21.5473C22.4085 15.1734 23.3071 14.5854 24.238 14.0555L24.2371 14.0552ZM117.198 11.4767V10.9361L121.429 8.60048V8.53083C120.533 7.25906 119.714 5.93182 118.975 4.55662H118.924C117.438 5.21107 115.905 5.74717 114.338 6.1602C114.44 6.92249 114.485 7.69164 114.474 8.461V12.7838C115.326 13.891 116.284 14.9071 117.334 15.8167H117.419C118.709 14.9349 120.042 14.1204 121.412 13.3764L121.209 13.0626C120.566 13.3764 120.041 13.6552 119.517 13.8993C118.669 13.1715 117.893 12.3599 117.199 11.4763L117.198 11.4767ZM67.9342 15.8161H67.985C68.865 15.1537 69.8466 14.4217 70.6758 13.8812L70.5403 13.6554C70.2695 13.7773 70.0326 13.9001 69.7788 14.0215C69.5624 13.8647 69.3637 13.6834 69.1865 13.481V8.04199C69.1865 7.01347 69.2035 6.57789 69.3219 6.10711C68.1888 5.82815 66.3941 5.0961 65.6667 4.55587H65.6159C64.548 5.84439 63.2987 6.96079 61.9096 7.86787V7.93751C62.5949 8.76841 63.51 9.36432 64.5327 9.64575C63.698 10.061 62.8389 10.4219 61.9604 10.7264C62.0415 11.3036 62.0811 11.8862 62.0788 12.4695V14.2125C62.5519 14.8882 63.1645 15.4475 63.8726 15.8502H63.9234C64.7187 15.2576 65.5819 14.6643 66.4272 14.1071C66.8368 14.7562 67.3454 15.333 67.9333 15.8154L67.9342 15.8161ZM124.745 15.8677C126.046 14.9476 127.488 14.2583 129.01 13.8283C128.922 13.4164 128.882 12.9951 128.891 12.5734V9.74985L126.268 8.56396H126.201L125.439 9.43549L124.644 9.06937V6.33394C124.99 6.71069 125.407 7.01033 125.87 7.21431C126.333 7.41829 126.831 7.52227 127.334 7.51982C127.528 7.51505 127.721 7.49173 127.91 7.45017C128.57 6.77046 129.128 5.53281 129.128 4.59163C129.016 4.57414 128.902 4.57414 128.79 4.59163C128.79 4.79123 128.768 4.9902 128.722 5.1842C128.519 5.27373 128.3 5.32113 128.079 5.32368C127.397 5.30794 126.748 5.02048 126.268 4.5218H126.217C125.134 5.32368 123.51 6.0209 121.953 6.43916C122.042 6.94511 122.082 7.45899 122.071 7.97309V10.5519L124.525 11.7024H124.593L125.371 10.8134L126.302 11.2316V13.9507C125.507 13.2011 124.305 12.87 123.29 12.87C123.096 12.8748 122.903 12.8981 122.714 12.9397C122.054 13.6194 121.496 14.8745 121.496 15.8157C121.608 15.8331 121.722 15.8331 121.834 15.8157C121.834 15.6161 121.856 15.4172 121.902 15.2232C122.105 15.1336 122.324 15.0862 122.545 15.0837C123.188 15.0837 124.102 15.258 124.694 15.8856H124.745L124.745 15.8677ZM51.1116 15.8677C52.4127 14.9476 53.8542 14.2583 55.3763 13.8283C55.2882 13.4164 55.2484 12.9951 55.2579 12.5734V9.74985L52.6347 8.56396H52.5671L51.8055 9.43549L51.0102 9.06937V6.33394C51.3561 6.71068 51.7733 7.01031 52.2361 7.21429C52.699 7.41827 53.1975 7.52225 53.7009 7.51982C53.8944 7.51504 54.087 7.49173 54.2763 7.45017C54.9362 6.77046 55.4947 5.53281 55.4947 4.59163C55.3825 4.57414 55.2684 4.57414 55.1562 4.59163C55.1569 4.79123 55.1342 4.99019 55.0886 5.1842C54.8852 5.27373 54.6667 5.32113 54.4455 5.32368C53.7639 5.30792 53.1148 5.02046 52.6347 4.5218H52.6009C51.5179 5.32368 49.8932 6.0209 48.3362 6.43916C48.4254 6.94511 48.4651 7.45899 48.4547 7.97309V10.5519L50.9086 11.7024H50.9762L51.7547 10.8134L52.6855 11.2316V13.9507C51.907 13.2186 50.7731 12.87 49.8085 12.87C49.6151 12.8748 49.4225 12.8981 49.2332 12.9397C48.5733 13.6194 48.0148 14.8745 48.0148 15.8157C48.1269 15.8331 48.241 15.8331 48.3532 15.8157C48.3526 15.6161 48.3753 15.4172 48.4208 15.2232C48.6243 15.1336 48.8428 15.0862 49.064 15.0837C49.8095 15.0795 50.5289 15.366 51.0778 15.8856H51.1116V15.8677ZM87.6999 12.9393L87.6829 12.9218C87.8184 12.5559 87.8352 12.3117 87.8352 11.3879V6.33394C87.8361 5.76089 87.7852 5.189 87.6829 4.6257L88.0382 4.4689C88.1295 5.03343 88.1748 5.60483 88.1736 6.17714V11.1277C88.1566 12.3136 88.072 12.557 87.6998 12.9404L87.6999 12.9393ZM36.0664 15.2934L35.7279 15.5193C35.1952 15.0571 34.7381 14.5097 34.374 13.8982V6.4561C30.8877 4.41676 30.4986 4.19012 30.1601 4.03332L30.0755 3.52772H30.0923L34.6955 6.31662V13.7421C35.074 14.3273 35.5361 14.8503 36.0662 15.2934H36.0664ZM90.2725 4.85253C90.2725 4.03333 90.2895 3.75436 90.6279 3.40575C90.7802 3.42326 91.1018 3.47539 91.2879 3.4929V13.3412C90.8032 13.4814 90.302 13.5517 89.7986 13.5503C89.0836 13.557 88.3731 13.433 87.7001 13.1842C88.6477 12.8008 89.6293 12.365 90.3909 11.9816C90.3135 11.4156 90.2739 10.8449 90.2725 10.2733V4.85253ZM57.1702 5.77639C57.1702 4.8177 57.1194 4.03333 57.0856 3.61507L57.4917 3.31879H57.5085V12.9579L57.2039 13.2026H57.1701L57.1702 5.77639ZM4.47136 2.91728C3.55757 4.24208 3.40515 4.53836 3.40515 6.15926V10.5521C3.40515 12.5566 3.32053 13.3585 1.98365 14.9621L1.96665 14.9446C3.04968 13.4805 3.08367 12.6786 3.08367 10.6566V6.24659C3.08367 4.62551 3.25291 4.32923 4.45436 2.91747L4.47136 2.91728ZM11.7146 15.293L11.3762 15.5189C10.7882 15.1217 10.2631 14.6338 9.81925 14.0721V4.7825C9.83562 4.11652 9.7846 3.45059 9.66701 2.79549L10.0731 2.49921C10.1448 3.20569 10.173 3.91612 10.1577 4.62627V13.9341C10.6028 14.4701 11.1284 14.9292 11.7146 15.2938V15.293ZM4.6236 2.0465L4.6406 2.06401C4.11589 2.43012 3.76061 2.56942 3.37133 2.56942C2.88063 2.56942 2.45754 2.32471 2.01746 2.32471C1.82172 2.31845 1.62672 2.35218 1.44372 2.42397C1.26072 2.49576 1.09333 2.60419 0.951241 2.74298C0.840179 2.84712 0.748407 2.97116 0.680393 3.10909H0.663396C0.714386 2.86535 0.831799 2.64164 1.00187 2.4642C1.30637 2.17899 1.70765 2.02874 2.11889 2.04594C2.59278 2.04594 3.06668 2.29064 3.57438 2.29064C3.93733 2.28945 4.29556 2.2059 4.6236 2.04594V2.0465ZM14.9469 1.83681C15.3588 2.37828 15.8054 2.89074 16.2838 3.37074L16.0129 3.54504C15.5368 3.07308 15.1008 2.55989 14.7099 2.01112L14.9469 1.83681ZM95.8908 1.8193C96.3132 2.36243 96.7652 2.88036 97.2447 3.37055L96.9738 3.54485C96.491 3.06313 96.0441 2.54458 95.637 1.99361L95.8908 1.8193ZM83.317 4.71286C83.4055 4.22268 83.6287 3.76895 83.9601 3.40556C84.5863 2.76067 85.5171 2.44688 86.7525 2.44688C88.6817 2.44688 90.9834 3.05695 92.4895 3.05695C93.2681 3.05695 93.911 2.70834 94.4357 1.74966L94.4865 1.76716C93.928 2.93422 93.268 3.33592 92.4049 3.33592C90.8988 3.33592 88.6309 2.72585 86.6679 2.72585C85.4494 2.72585 84.5863 3.03963 83.977 3.66702C83.6901 3.95551 83.4702 4.30704 83.3338 4.69535H83.3168L83.317 4.71286ZM59.9294 1.50552L59.8447 1.45318C58.5755 2.27238 57.5771 2.98711 56.8493 3.56142C56.9056 4.00645 56.9338 4.45476 56.9339 4.90354C56.6712 5.51803 56.3659 6.11219 56.0202 6.68142L56.071 6.75107H56.9341V13.3049C56.7311 13.4617 56.5787 13.5838 56.3756 13.7231V13.7754C57.1379 14.6057 58.0095 15.3217 58.9649 15.9025H59.0158C59.8705 15.241 60.7761 14.6522 61.7235 14.1419L61.5881 13.9161C61.3861 13.9985 61.1884 14.0916 60.9958 14.195C60.5533 13.9552 60.129 13.6814 59.7265 13.3758V6.76876H59.8449C60.3704 6.76257 60.8958 6.78582 61.4188 6.83841C62.2312 5.74024 62.5865 5.13017 62.7219 4.73017L62.6711 4.67784C62.009 4.76666 61.3417 4.80742 60.6741 4.79982H59.7263C59.7284 3.69853 59.7962 2.59842 59.9294 1.5057V1.50552ZM35.712 15.8161H35.7628C36.6428 15.1537 37.6244 14.474 38.4535 13.9161L38.3181 13.6902C38.0475 13.8122 37.8104 13.9349 37.5566 14.0563C37.3391 13.8877 37.1404 13.6948 36.9642 13.481V7.86787C36.9642 6.66523 37.015 6.07248 37.0489 5.60189C31.921 2.34241 30.4825 1.3314 29.7041 0.425419L29.6195 0.442923C29.6081 1.70248 29.7329 2.95944 29.9918 4.19051C30.3979 4.36481 30.8042 4.57394 32.2257 5.42796C31.3795 5.86372 30.4319 6.29949 29.5349 6.68293C29.6075 7.44745 29.6358 8.21574 29.6195 8.98373V14.0038C30.127 14.7407 30.7856 15.3536 31.5487 15.7992H31.5995C32.3949 15.2064 33.2919 14.5965 34.1551 14.0386C34.5701 14.7197 35.0969 15.3213 35.712 15.8165V15.8161ZM15.9793 3.84133H16.0301C16.8425 3.26608 17.384 2.86514 18.0953 2.27257V2.22081C17.6091 1.58193 17.0894 0.970947 16.5384 0.390596H16.4876C15.8276 0.878691 15.1337 1.36679 14.406 1.99418V2.0465C14.8737 2.69539 15.4007 3.29661 15.9799 3.84189L15.9793 3.84133ZM96.8907 3.84189H96.9415C97.7539 3.26664 98.2954 2.8657 99.0067 2.27314V2.22081C98.5205 1.58193 98.0008 0.970951 97.4498 0.390596H97.399C96.739 0.878691 96.0451 1.36679 95.3173 1.99418V2.0465C95.7899 2.69128 96.3166 3.29205 96.8913 3.84189H96.8907ZM7.14531 14.3518L7.1623 14.2995V8.53008H9.61621V14.195C10.12 14.8175 10.7069 15.3633 11.3594 15.8161H11.4102C12.348 15.0961 13.3256 14.4327 14.338 13.8291L14.2025 13.5844C13.9149 13.7064 13.6778 13.8291 13.424 13.9505C13.0898 13.7863 12.7993 13.5408 12.5778 13.2352V3.71935C12.5778 2.25525 12.6962 1.34871 12.9333 0.42523L12.8487 0.372903C11.6302 1.10495 10.1409 2.08114 9.4128 2.77836C9.57179 3.44519 9.64012 4.13152 9.61584 4.81771V6.57808H7.17912V3.56255C7.17912 1.81949 7.29754 1.3489 7.58521 0.442549L7.51759 0.42504C6.92526 1.26175 6.72222 1.97629 6.72222 3.73686V13.9686C6.30978 13.7485 5.84963 13.6405 5.38534 13.6548C4.87763 13.6548 4.43755 13.7071 3.54075 14.0209L3.52375 14.0034C5.69 12.0164 5.75762 11.6678 5.75762 10.221V4.05045C5.75762 2.22024 5.97693 1.41836 6.4521 0.529515L6.38448 0.459869C5.97205 0.722876 5.49875 0.867297 5.01379 0.878125C4.35385 0.878125 3.45687 0.529515 2.6615 0.529515C2.08473 0.513523 1.52517 0.732783 1.10458 1.13959C0.726002 1.53425 0.51326 2.06639 0.512255 2.62119C0.513246 2.9229 0.558912 3.22269 0.647679 3.51022H0.698486C0.759501 3.29082 0.876359 3.09222 1.03696 2.93497C1.15986 2.81208 1.30576 2.71624 1.46578 2.65329C1.62581 2.59035 1.7966 2.56162 1.96775 2.56885C2.49245 2.56885 2.84773 2.79474 3.33844 2.79474C3.82915 2.79474 4.21842 2.62043 4.97998 2.07944L4.99697 2.09695C2.99997 4.24095 2.9318 4.62439 2.9318 6.28029V6.57658C2.6259 6.5645 2.32086 6.53541 2.01801 6.48942C1.42699 7.16135 0.878669 7.87185 0.376465 8.61648L0.427272 8.66881C0.964649 8.58202 1.50808 8.54122 2.052 8.54683H2.93198V11.3704C2.93198 13.1134 2.6944 13.8282 1.27344 15.7105L1.34107 15.7977C2.18724 15.449 2.79656 15.2921 3.55811 15.2921C3.81422 15.279 4.07029 15.3185 4.31144 15.4082C4.55259 15.498 4.774 15.6363 4.9628 15.815H5.01361C5.66025 15.2344 6.37699 14.7422 7.14604 14.3507L7.14531 14.3518ZM85.0106 8.77291C85.0133 8.04314 85.1586 7.32139 85.4377 6.65063C85.7168 5.97987 86.1241 5.37381 86.6354 4.86853L86.5677 4.78137C85.5958 5.10818 84.7138 5.66968 83.9954 6.41902C83.0924 7.3617 82.5876 8.63361 82.5907 9.95784C82.5753 10.7161 82.7116 11.4696 82.9912 12.1713C83.2707 12.8729 83.6874 13.5079 84.2155 14.0365C85.3668 15.2224 86.9568 15.9016 88.937 15.9016C90.7816 15.9016 92.2201 15.2567 93.2867 14.1585C94.1877 13.2048 94.7021 11.9333 94.7252 10.6027L94.6068 10.5852C93.99 11.7748 92.973 12.6918 91.7466 13.1641V3.52754C92.0851 3.54505 92.2713 3.54504 92.3727 3.54504C93.6588 3.54504 94.6404 2.70834 95.1481 0.146077L95.0297 0.09375C94.5389 0.773468 93.8966 1.0001 92.9828 1.0001C91.4935 1.0001 89.0565 0.390033 87.2458 0.390033C85.8243 0.390033 84.6226 0.8433 83.8273 1.6625C83.5453 1.94106 83.3229 2.27718 83.1743 2.64935C83.0256 3.02151 82.954 3.42153 82.9641 3.82382C82.9686 4.30934 83.0664 4.78914 83.2518 5.23558H83.3194C83.4305 4.70978 83.6826 4.22664 84.0471 3.84114C84.6225 3.24838 85.4518 2.89996 86.6195 2.89996C87.3472 2.89996 88.3286 2.98712 90.258 3.2834C89.3442 3.63201 88.1764 4.1201 87.4148 4.48603C87.5361 5.12322 87.5928 5.77166 87.5841 6.42091V11.7022C87.5841 12.4175 87.5671 12.7132 87.3648 12.9747C87.0043 12.8038 86.6728 12.5743 86.3832 12.295C85.5878 11.5281 85.0125 10.2905 85.0125 8.77403" fill="#333333"/>
</svg>
