<svg width="88" height="113" viewBox="0 0 88 113" fill="none" xmlns="http://www.w3.org/2000/svg">
<path d="M69.125 17.4094L52.8805 109.536L1.28164 100.438L17.5261 8.3111L25.7547 3.50555L63.0362 10.0793L69.125 17.4094ZM61.7957 13.6685L61.7952 13.6684C61.0927 13.5445 60.3693 13.6318 59.7164 13.919C59.0635 14.2063 58.5104 14.6808 58.1272 15.2824C57.7439 15.884 57.5477 16.5857 57.5632 17.2988C57.5788 18.0119 57.8055 18.7045 58.2146 19.2888C58.6237 19.8731 59.197 20.3229 59.8618 20.5814C60.5266 20.84 61.2531 20.8956 61.9495 20.7412C62.6459 20.5868 63.2809 20.2294 63.7741 19.7141C64.2674 19.1988 64.5968 18.5489 64.7206 17.8464L64.7207 17.8459C64.8858 16.9042 64.6705 15.9355 64.1221 15.1523C63.5737 14.3692 62.7371 13.8355 61.7957 13.6685Z" fill="#E0E0E0" stroke="#CECECE"/>
<path d="M30.757 28.3737L30.6187 29.1578L26.3776 32.759L29.9591 33.3905L29.8019 34.282L24.8837 33.4147L25.0322 32.5728L29.2631 29.0294L26.0347 28.4602L26.1919 27.5687L30.757 28.3737ZM25.1 19.2462L24.9099 20.3244L19.0784 25.2761L24.0029 26.1444L23.7868 27.3702L17.0243 26.1777L17.2284 25.0201L23.0459 20.1479L18.6069 19.3652L18.823 18.1394L25.1 19.2462Z" fill="#757575"/>
<path d="M38.9008 58.7781C38.6026 60.4691 39.9031 62.1119 41.8054 62.4473C43.7078 62.7828 45.4917 61.6839 45.7899 59.9929" stroke="#757575" stroke-width="2" stroke-linecap="round"/>
<path d="M29.4922 67.375L37.9122 68.8597" stroke="#757575" stroke-width="2" stroke-linecap="round"/>
<path d="M25.1234 56.3484C24.8252 58.0394 26.1257 59.6822 28.0281 60.0176C29.9305 60.3531 31.7144 59.2542 32.0125 57.5632" stroke="#757575" stroke-width="2" stroke-linecap="round"/>
<circle cx="35.8345" cy="57.0865" r="20.7" transform="rotate(10 35.8345 57.0865)" stroke="white" stroke-width="1.6"/>
<path d="M68.3767 12.0614C66.1829 12.7655 65.1381 14.0729 64.4426 14.8156C63.7471 15.5582 63.1659 16.7133 63.518 17.1467C64.0819 17.8407 64.8782 16.1762 65.6605 15.3971C66.4428 14.6181 67.8379 13.4825 69.1257 13.2205C70.4135 12.9585 72.6148 12.9019 75.302 15.6712C77.3455 17.7769 79.1008 21.5166 79.1927 28.1253C79.4428 44.125 70.7945 51.608 69.5311 58.7731C68.2677 65.9382 68.5793 71.3979 70.9521 75.6763C71.4248 76.4626 72.0991 75.8837 71.8602 75.1028C71.4216 73.7089 68.7302 67.8412 70.8051 59.0711C72.5712 51.6034 81.2269 41.5909 80.4628 27.9825C79.9827 19.4273 77.5803 15.0031 74.4147 13.0832C72.5457 11.9504 70.5705 11.3573 68.3767 12.0614Z" fill="#757575"/>
<path d="M69.0465 10.3392C67.2526 10.736 65.134 11.5267 63.6976 13.2108C62.5701 14.5326 62.4403 15.5462 62.8526 15.9228C63.2649 16.2993 63.9107 14.8674 64.6483 14.0457C66.1238 12.4022 69.0563 11.4331 70.0469 11.3226C71.4216 11.1692 80.2472 10.383 82.0655 25.5812C83.991 41.468 76.1746 49.8147 75.669 57.0728C75.5128 59.3182 75.3577 61.4195 75.6142 63.2883C75.8706 65.1571 77.1858 65.5388 76.8653 63.3628C76.6484 61.3244 76.6827 59.267 76.9673 57.2369C77.9411 49.6252 85.4996 38.7611 83.3135 25.3073C82.114 17.9246 79.5177 13.2288 75.9733 11.4151C72.4289 9.60142 69.856 10.1601 69.0465 10.3392Z" fill="#757575"/>
<path d="M67.7647 14.4464C68.1449 14.1098 68.3824 13.6408 68.4286 13.135C68.4748 12.6293 68.3264 12.125 68.0135 11.725C67.0654 10.3963 65.534 10.4154 65.0892 11.033C64.6772 11.6053 65.1214 12.0204 65.409 11.8285C65.8639 11.5247 66.3607 11.6888 66.9455 12.3959C67.5136 13.0826 67.2288 13.5156 67.0191 13.9353C66.8094 14.355 67.4477 14.6974 67.7647 14.4464Z" fill="#757575"/>
</svg>
