<svg width="21" height="22" viewBox="0 0 21 22" fill="none" xmlns="http://www.w3.org/2000/svg">
<mask id="path-1-inside-1" fill="white">
<path fill-rule="evenodd" clip-rule="evenodd" d="M20.4896 11.8719C20.4846 16.3172 17.5766 20.2377 13.324 21.5323C9.07148 22.827 4.47218 21.192 1.99099 17.5037C-0.490199 13.8153 -0.271096 8.93896 2.53088 5.48798C5.33285 2.03699 10.0602 0.821102 14.1796 2.49192"/>
</mask>
<path d="M19.4896 11.8708C19.4851 15.8764 16.8647 19.4091 13.0328 20.5757L13.6153 22.489C18.2885 21.0663 21.4841 16.758 21.4896 11.873L19.4896 11.8708ZM13.0328 20.5757C9.20087 21.7423 5.05649 20.269 2.82072 16.9455L1.16126 18.0618C3.88787 22.115 8.9421 23.9117 13.6153 22.489L13.0328 20.5757ZM2.82072 16.9455C0.58495 13.6219 0.782381 9.22794 3.30721 6.1183L1.75455 4.85765C-1.32457 8.64997 -1.56535 14.0086 1.16126 18.0618L2.82072 16.9455ZM3.30721 6.1183C5.83203 3.00867 10.0918 1.91304 13.8037 3.41859L14.5554 1.56524C10.0287 -0.270836 4.83367 1.06532 1.75455 4.85765L3.30721 6.1183Z" fill="#757575" mask="url(#path-1-inside-1)"/>
<path d="M11 5.53086L13.567 3.33333L13.7664 0L19 6L11 5.53086Z" fill="#757575"/>
</svg>
