<svg width="54" height="54" viewBox="0 0 54 54" fill="none" xmlns="http://www.w3.org/2000/svg">
<path d="M36.4922 0C35.9098 0 35.4375 0.472289 35.4375 1.05469V5.90625C35.4375 6.48865 35.9098 6.96094 36.4922 6.96094C37.0746 6.96094 37.5469 6.48865 37.5469 5.90625V1.05469C37.5469 0.472289 37.0746 0 36.4922 0Z" fill="white"/>
<path d="M12.2344 32.9062C11.6522 32.9062 11.1797 33.3787 11.1797 33.9609C11.1797 34.5431 11.6522 35.0156 12.2344 35.0156C12.8166 35.0156 13.2891 34.5431 13.2891 33.9609C13.2891 33.3787 12.8166 32.9062 12.2344 32.9062Z" fill="white"/>
<path d="M51.2578 30.7969C51.2578 28.4707 49.3653 26.5781 47.0391 26.5781H39.1656C40.3845 23.4559 40.8779 19.781 40.7828 16.5097C40.7646 15.8854 40.7407 15.5244 40.7083 15.2971C40.6538 13.0182 38.7825 11.1797 36.4922 11.1797C34.166 11.1797 32.2734 13.0722 32.2734 15.3984V16.4531C32.2734 23.1236 23.7079 26.8714 17.2437 28.4786C16.755 27.3612 15.6393 26.5781 14.3438 26.5781H3.79688C3.21448 26.5781 2.74219 27.0504 2.74219 27.6328V52.9453C2.74219 53.5277 3.21448 54 3.79688 54H14.3438C15.6307 54 16.7399 53.2272 17.2337 52.1217C17.769 52.259 18.2658 52.3888 18.7245 52.5086C22.4069 53.4703 24.4354 54 29.3688 54H40.7109C43.0372 54 44.9297 52.1075 44.9297 49.7812C44.9297 48.9139 44.6663 48.107 44.2157 47.4358C45.8449 46.866 47.0391 45.3093 47.0391 43.4531C47.0391 42.5889 46.7821 41.7794 46.3328 41.1052C47.955 40.5344 49.1484 38.9813 49.1484 37.125C49.1484 36.2576 48.8851 35.4508 48.4344 34.7796C50.0637 34.2097 51.2578 32.653 51.2578 30.7969ZM15.3984 50.8359C15.3984 51.4175 14.9253 51.8906 14.3438 51.8906H4.85156V28.6875H14.3438C14.9253 28.6875 15.3984 29.1606 15.3984 29.7422V50.8359ZM47.0391 32.9062C44.7769 32.9062 44.2376 32.9062 41.7656 32.9062C41.1832 32.9062 40.7109 33.3785 40.7109 33.9609C40.7109 34.5433 41.1832 35.0156 41.7656 35.0156H44.9297C46.0928 35.0156 47.0391 35.9619 47.0391 37.125C47.0391 38.29 46.0947 39.2344 44.9297 39.2344H39.6562C39.0739 39.2344 38.6016 39.7067 38.6016 40.2891C38.6016 40.8715 39.0739 41.3438 39.6562 41.3438H42.8203C43.9696 41.3438 44.9297 42.2619 44.9297 43.4531C44.9297 44.6181 43.9853 45.5625 42.8203 45.5625C40.5581 45.5625 40.0189 45.5625 37.5469 45.5625C36.9645 45.5625 36.4922 46.0348 36.4922 46.6172C36.4922 47.1996 36.9645 47.6719 37.5469 47.6719H40.7109C41.874 47.6719 42.8203 48.6181 42.8203 49.7812C42.8203 50.9444 41.874 51.8906 40.7109 51.8906H29.3688C24.7064 51.8906 22.8853 51.4151 19.2575 50.4676C18.7261 50.3288 18.1432 50.1767 17.5078 50.0147V30.5886C25.1404 28.7705 34.3828 24.3328 34.3828 16.4531V15.3984C34.3828 14.2353 35.3291 13.2891 36.4922 13.2891C37.6532 13.2891 38.5993 14.2339 38.6016 15.3952V15.3984C38.6016 15.8568 39.1736 21.4822 36.8797 26.5781H33.3281C32.7457 26.5781 32.2734 27.0504 32.2734 27.6328C32.2734 28.2152 32.7457 28.6875 33.3281 28.6875C34.0646 28.6875 45.8369 28.6875 47.0391 28.6875C48.2022 28.6875 49.1484 29.6338 49.1484 30.7969C49.1484 31.9619 48.2041 32.9062 47.0391 32.9062Z" fill="white"/>
<path d="M12.2344 37.125C11.652 37.125 11.1797 37.5973 11.1797 38.1797V46.6172C11.1797 47.1996 11.652 47.6719 12.2344 47.6719C12.8168 47.6719 13.2891 47.1996 13.2891 46.6172V38.1797C13.2891 37.5973 12.8168 37.125 12.2344 37.125Z" fill="white"/>
<path d="M28.0547 13.2891H23.8359C23.2535 13.2891 22.7812 13.7614 22.7812 14.3438C22.7812 14.9261 23.2535 15.3984 23.8359 15.3984H28.0547C28.6371 15.3984 29.1094 14.9261 29.1094 14.3438C29.1094 13.7614 28.6371 13.2891 28.0547 13.2891Z" fill="white"/>
<path d="M49.1484 13.2891H44.9297C44.3473 13.2891 43.875 13.7614 43.875 14.3438C43.875 14.9261 44.3473 15.3984 44.9297 15.3984H49.1484C49.7308 15.3984 50.2031 14.9261 50.2031 14.3438C50.2031 13.7614 49.7308 13.2891 49.1484 13.2891Z" fill="white"/>
<path d="M46.1864 4.64866C45.7745 4.23691 45.1068 4.23691 44.6948 4.64866L41.7122 7.6312C41.3004 8.04306 41.3004 8.71089 41.7122 9.12285C42.1243 9.5347 42.7918 9.5346 43.2039 9.12285L46.1864 6.1403C46.5983 5.72844 46.5983 5.06062 46.1864 4.64866Z" fill="white"/>
<path d="M31.2714 7.6312L28.2888 4.64866C27.8769 4.23691 27.2092 4.23691 26.7972 4.64866C26.3853 5.06051 26.3853 5.72834 26.7972 6.1403L29.7797 9.12285C30.1919 9.5347 30.8594 9.5346 31.2714 9.12285C31.6832 8.71099 31.6832 8.04316 31.2714 7.6312Z" fill="white"/>
</svg>
